<svg xmlns="http://www.w3.org/2000/svg" viewBox="0 0 861.71 1196.76"><defs><style>.cls-1{fill:#f58541;}.cls-2{fill:#da562d;}.cls-3{fill:#b43343;}.cls-4{fill:#670721;}.cls-5{fill:#faa856;}.cls-6{fill:#e2736d;}.cls-7{fill:#4c6683;}.cls-8{fill:#65809e;}.cls-9{fill:#edd3c1;}.cls-10{fill:#8fb4ca;}.cls-11{fill:#5d7c93;}.cls-12{fill:#4e6e81;}.cls-13{fill:#001c2b;}.cls-14{fill:#f0d5c2;}.cls-15{fill:#685247;}.cls-16{fill:#28081c;}</style></defs><g id="Layer_2" data-name="Layer 2"><g id="Capa_1" data-name="Capa 1"><path class="cls-1" d="M858.43,533.17H114.33s-9.52-12.52-7.07-16.69,11.7-7,7.07-12.52-9.52-13.91-7.07-18.08,11.7-7,7.07-13.92-8.17-12.52-7.73-16.69,7.73-11.13,7.73-11.13,3.32-5.56,0-9.74-7.07-16.69-7.07-16.69l7.07-9.73V349.55s-2-11.12,0-16.68-6-18.09,0-20.87,744.1,0,744.1,0,1.32,6.95,0,11.12-1.32-5.56-1.32,4.18,2.5,12.52,1.91,18.08,3.41,7,.09,16.69,5.93,9.74-.68,16.69-14.56,9.74-11.91,13.91,21.16,5.58,11.91,11.13-7.94-1.39-9.26,5.57S859.61,417.87,861,422s-2.84,5.49-2,13.84,3.86,8.34,2.33,15.3-12.12,1.47-10.8,9.77,7.94,8.31,7.94,12.48v16.7c0,4.17,4,6.95,0,11.12s-13.23,4.18-13.23,8.35,19.84,8.35,13.23,11.13S858.43,533.17,858.43,533.17Z"/><path class="cls-2" d="M826.51,295.06H82.42s-9.53-7.46-7.08-9.94,11.71-4.14,7.08-7.46-9.53-8.28-7.08-10.77,11.71-4.14,7.08-8.29-8.19-7.45-7.72-9.94S82.42,242,82.42,242s3.31-3.32,0-5.8-7.08-10-7.08-10l7.08-5.79V185.7s-2-6.62,0-9.95-6-10.76,0-12.42,744.09,0,744.09,0,1.33,4.14,0,6.63-1.31-3.32-1.31,2.48,2.49,7.46,1.91,10.77,3.41,4.14.08,9.95,5.94,5.8-.68,9.94-14.55,5.8-11.9,8.28,21.17,3.32,11.9,6.63-7.93-.83-9.25,3.32,10.43,5.06,11.83,7.5-2.84,3.27-2,8.24,3.86,5,2.32,9.11-12.11.87-10.79,5.82,7.93,4.95,7.93,7.44v9.94c0,2.49,4,4.14,0,6.62s-13.22,2.49-13.22,5,19.84,5,13.22,6.63S826.51,295.06,826.51,295.06Z"/><path class="cls-3" d="M850.33,146.24H106.23s-9.53-4.55-7.08-6.07,11.71-2.52,7.08-4.54-9.53-5.06-7.08-6.57,11.71-2.53,7.08-5-8.18-4.55-7.73-6.07,7.73-4,7.73-4,3.31-2,0-3.53-7.08-6.06-7.08-6.06l7.08-3.54V79.53s-2-4,0-6.06-6-6.57,0-7.58,744.1,0,744.1,0,1.31,2.52,0,4-1.32-2-1.32,1.52S851.5,76,850.91,78s3.42,2.53.09,6.07,5.94,3.54-.67,6.06-14.55,3.54-11.91,5.06,21.17,2,11.91,4-7.94-.51-9.26,2,10.43,3.09,11.83,4.58-2.84,2-2,5,3.86,3,2.32,5.56-12.11.54-10.79,3.56,7.94,3,7.94,4.53v6.06c0,1.52,4,2.53,0,4.05s-13.23,1.51-13.23,3,19.84,3,13.23,4S850.33,146.24,850.33,146.24Z"/><path class="cls-4" d="M834.45,49H90.36s-9.53-2.76-7.09-3.68S95,43.8,90.36,42.57s-9.53-3.06-7.09-4S95,37.06,90.36,35.52s-8.19-2.76-7.73-3.67,7.73-2.46,7.73-2.46,3.3-1.22,0-2.14a27.2,27.2,0,0,1-7.09-3.68l7.09-2.15V8.55s-2-2.45,0-3.68-6-4,0-4.6,744.09,0,744.09,0,1.33,1.53,0,2.45-1.32-1.22-1.32.92,2.49,2.76,1.91,4,3.41,1.53.08,3.67,6,2.15-.67,3.69-14.56,2.14-11.9,3.06,21.16,1.23,11.9,2.45-7.94-.3-9.25,1.23S835.62,23.6,837,24.51s-2.83,1.2-2,3,3.86,1.84,2.32,3.37-12.1.33-10.79,2.16,7.94,1.83,7.94,2.75v3.68c0,.92,4,1.53,0,2.45s-13.22.92-13.22,1.84,19.84,1.84,13.22,2.45S834.45,49,834.45,49Z"/><polygon class="cls-5" points="842.56 1184.67 98.46 1184.67 98.46 829.48 98.46 549.71 842.56 549.71 842.56 1184.67"/><path class="cls-6" d="M544.82,680.65A107.57,107.57,0,1,0,652.4,573.08,107.58,107.58,0,0,0,544.82,680.65Z"/><path class="cls-7" d="M842.56,1184.67H98.46V1104s-9-24.2-3.3-28.45-2.28-11.16-3.78-15.87-.2-7.94,3.78-13.23-4-7.93-3.77-11.9,1.12-9.27,5.08-11.92,2.65-9.25-1.31-17.18,3.3-12.27,3.3-12.27h744.1s6.17,12.27,4.4,20.2-4.07,14.22-1.43,18.19,3.2,10.91,1.43,14.89-4.75,8.59,0,15.2,5.36,6,.48,13.9-4.88,11.9-4.88,19.84,5.82,14.88,2.64,22.81,1.71,7.62,4.35,14.23-.82,13.22-2.59,17.2-.44,26.44-4.4,35.05"/><path class="cls-8" d="M845.2,1118.19a13,13,0,0,0,.88-3.8c-35.82-2.51-223.42.83-241.63.83-19.84,0-227.53-7.94-260.6-11.24s-34.39-15.07-34.39-15.07H842.7c.33-4.3,1.37-7.89,4.74-13.37,4.88-7.94,4.28-7.29-.48-13.9-2.51-3.49-2.85-6.43-2.35-9-102.66-1.09-584.89-6.19-602.62-6.19-19.85,0-2.65-19.84-2.65-19.84,2.65-11.91,559.56,9.26,564.86,0S773.77,1012,773.77,1012H97.9c1.53,4.87,1.37,8.72-1.43,10.57-4,2.65-4.88,7.94-5.08,11.92s7.73,6.61,3.77,11.9-5.29,8.53-3.78,13.23,9.46,11.62,3.78,15.87,3.3,28.45,3.3,28.45v34.45c81.52-1.06,229.88-3.5,230.83-7.34,1.2-4.77,434.94,2.31,520,.81C846.64,1125.84,842.12,1125.91,845.2,1118.19Z"/><path class="cls-9" d="M98.46,821.55s13.9-4,31.75-17.86,41.67-31.75,57.54-37.7,29.76-21.83,37.7-27.78,25.8-21.83,31.75-23.81,17.86-9.92,27.78,0,41.66,31.74,41.66,31.74,25.81-25.64,41.68-36.63,31.75-28.85,39.69-28.85h21.82s67.47-56.73,77.39-59.12,13.89,1.58,21.82,9.52,23.82,23.8,33.73,31.74,33.74,57.26,45.64,58.4,29.77,17,29.77,17,31.75-20.13,47.62-17,35.72,30.9,47.62,36.85,31.76,29.77,37.7,35.72,23.81-2,39.69-7.93,21.82-9.93,31.75-2,0,29.76,0,37.7,8.81,7.93,4.4,19.84-4.4,15.87-4.4,25.8,11.29,11.9,5.64,25.79,8.8,15.87,1.58,23.81-7.22,25.8-7.22,45.64-744.1,0-744.1,0-5.95-11.91-2-23.81,1.25-17.86-1.35-27.78,2.6-17.86,0-25.8,3.08-21.82-.76-29.76-4.11-5.95,0-15.87A51.71,51.71,0,0,0,98.46,821.55Z"/><path class="cls-10" d="M848.2,893c5.65-13.89-5.64-15.88-5.64-25.79-18.4-10.24-101.43-12-143.91,0-69.55,19.65-200.92-10.33-231.42-21.39s-90.7-42.89-140.59-53.5C290,784.5,132.88,837.33,95,856.79c2.59,8.09-2.29,20.8.17,28.25,2.6,7.94-2.61,15.88,0,25.8s5.33,15.87,1.35,27.78c-2.38,7.17-1.17,14.33.16,18.89H842.56c.05-17.84.6-33.44,7.22-40.72C857,908.85,842.56,906.87,848.2,893Z"/><path class="cls-5" d="M275.06,723.32s13.89,7.94,23.81,14.89S314.74,751.1,325.66,760s32.74,27.79,37.7,31.75-38.7-15.87-44.15-21.83-13.39-16.86-18.36-16.86c0,0,4,12.9,8.93,17.86s15.88,18.9,16.86,21.35-22.81-10.44-29.75-19.37-3-18.84-10.92-26.79S275.06,723.32,275.06,723.32Z"/><path class="cls-5" d="M497.54,627.1s-20.09,19.83-27,28.77-7.68,19.78-18.85,17.85-11.9,5.95-15.87,9.92-10.92,11.9-12.9,14.88-20.84,24.8-20.84,24.8,11.9-9.91,22.82-15.86,22.06-9.93,24.92-15.88a22.34,22.34,0,0,1,10.8-10.92l4-2-6,14.89c-2,4.95-9.92,16.86-13.89,21.82s-11.91,18.85-11.91,18.85,17.87-20.83,27.79-31.74,12.89-14.88,14.88-21.83,2-7.94,5.95-15.88,8.93-8.92,10.91-14.88S497.54,627.1,497.54,627.1Z"/><path class="cls-5" d="M688.77,734.24s14.89,10.91,18.86,13.89S721.52,762,731.44,771s22.82,17.46,27.78,25.1,16.87,32.45,20.83,37.4-23.81-17.86-30.75-25.79-12.9-25.1-18.85-23.47c0,0-3.59,8.19,4.16,11.86s6.75,13.59,9.72,20.54-21.82-11.32-26.78-20.54,1-6.25-8.93-22.13-12.9-13.89-19.85-24.8S688.77,734.24,688.77,734.24Z"/><path class="cls-11" d="M91.39,927.37s142.66-86,167.8-84.66,45,15.88,55.55,24.48,41.14,25.79,49,28.43,15.82,10.59,25.07,14.56,38.37,18.52,55.57,9.25,41.48-25.14,53.15-34.4,13-7.93,24.89-17.84,41-31.09,59.53-43,25.13-28.51,45-28.15,50.27,30.86,70.11,38.1,38.37,29.72,56.89,40.31,22.49,29.11,43.65,35.72,45.51,29.05,45.51,29.05v38.41L98.46,971.25Z"/><path class="cls-12" d="M152.76,951.19c9.48-3.16,85.36-74.3,102.75-88.75,9.51-7.9,22-11.33,31.4-12.83a78.81,78.81,0,0,0-27.72-6.9c-25.14-1.32-167.8,84.66-167.8,84.66l7.06,43.76C113.65,967.87,145.14,953.73,152.76,951.19Z"/><path class="cls-12" d="M497.54,885c-11.67,9.26-36,25.15-53.15,34.4s-46.31-5.28-55.57-9.25C380,906.37,372.3,899,364.75,896c5.21,6.06,8.95,11.32,9.06,14.05.39,9.26,46.1,39.52,54.85,47.42s38.67,1.59,44.45,0,35.32-28.45,42.1-31.61,21.67-31.61,24.35-39.06,24.19-25.75,40-32.08,20.56-22.13,31.62-41.75a43.37,43.37,0,0,1,16.76-16.86c-.33,0-.68-.1-1-.1-19.84-.36-26.46,16.23-45,28.15s-47.63,33.06-59.53,43S509.21,875.78,497.54,885Z"/><path class="cls-13" d="M842.56,1170.78s-137.13-21.84-156.87-25.8-45.52-2-55.44,0-51.6-.61-59.54-2.29-57.06-25.49-73.17-25.49H435.79s-46.84,9.93-72,0-140.28-61.51-166.08-63.5-99.21,0-99.21,0-14.15,21.83-7.07,31.75-7.08,11,0,26.35-7.08,13.34,0,29.21-7.08,15.88,0,29.77-24.68,27.78,7.07,25.79,136.91-9.92,154.77-7.93,115.09,4,136.91,0,29.77-6,47.63-4,42.14,0,59.77,0,51.35,4,77.14,2,45.64-4,57.55-2,56.82,0,100.83,0H791c9.92,0,41.66,7.93,51.59,0S842.56,1170.78,842.56,1170.78Z"/><path class="cls-13" d="M185,754.35c-8.58-1-31-23.53-31-23.53l.79-7.13s-8.72-11.89-7.14-15.05,4,.78,4.11,1.58,5.4-3.17,9.37-5.06-4,5.06-.79,10.62,4.75-4,10.27-6.36,8-3.16,10.32-4.26-.79-10-5.54-9.2-10.3-4-10.3-4-6.35.79-13.33-4-5.69-5.54-5.69-5.54l-4.75-15.06-4,6.62s.79-9.78-4-9.78-3.16,4.75-4.75,2.37-5.55-4.75-8.72-5.54-9.5,1.58-13.46,2.37-7.14-1.58-9.52,0,3.18,3.17,5.55,5.55-1.58,3.17-4.75,5-5.55,2.1-7.92,3.69-14.26-3.17-18.22-3.69.79,8.44.79,8.44-8.72-3.17-12.68,0S66.81,688,66.81,688a28.22,28.22,0,0,1-10.3,4c-5.55.79-4,2.37-5.55,6.34s-7.13,2.37-11.09,3.17-4,3.16-4,7.91,9.5,6.36,9.5,6.36h9.52s16.64-15.07,19.8-15.07-7.92,10.3-6.34,15.07,11.09-5.56,11.09-5.56S89,703.89,93,701.51s6.33,3.65,6.33,3.65-9.5,5.06-6.33,6.64,4-2.38,10.3-3.16,7.13.78,11.08,2.37,19,9.51,22.19,13.47,19.82,29.32,23,33.28,21.38,15.86,23.76,19.81,1.59,41.21,1.59,45.17.79,49.13.79,49.13,0,72.89-.79,85.57-4,52.29-5.55,71.31S161.1,1085,161.1,1085h57.84s-3.17-27.73-4-35.66,0-70.52,0-70.52V862.35c0-15.85-1.59-34.07-4-45.16s-3.18-60.22-4-62.84.15-42.79.15-42.79C207.71,707.87,231,683,231,681.45s-1.05-4.23-3.69-4S213,689.9,211.94,688.32s1.59-12.15,1.07-14.27-1.69-37-3.79-38.62c5.06-6.85,10.76-14.51,13.24-16.06,4.23-2.64,6.33-5.81,11.09-7.92s4.22,5.28,1.58,5.81-3.17,4.75-5.28,8.45-5.28,2.64-9,4.76-3.71,3.17-1.58,7.92,10,.53,13.73,0,7.39,3.17,11.62,4.22,2.11-3.16,4.75-4.22,3.7,1.59,8.46,1.06-1.06-2.64,2.11-3.7,11.09,3.17,15.84,4.23,8.84-1.59,8.84-5.29-3-3.17-3-6.34-3.7-4.23-6.87-4.75,0-5.81,3.7-6.87,2.11-4.22,1.58-7.92-4.23,1.05-5.81.53-2.11-2.65-5.28-3.7-5.28,3.7-8.46,2.64-4.22,0-4.22-4.76-10.57-1.58-12.15-2.64,7.93-5.8,9-9-2.64-.53-4.23-1.58,2.12-4.76,3.7-7.4-4.22,0-5.81,0,2.64-4.22,4.23-6.86-5.82-.53-8.46,1.58,2.64-2.11,4.76-6.86c.89-2-.3-3.38-2.18-4.27,4.11-4.6,8.11-9.38,9-10,1.59-1,4.23-8.45,8.46-6.87s6.87-3.17,7.39-.52,1.06,5.28,2.65,7.39-5.29,9-6.87,10-3.17,6.35-.54,7.4,7.41,3.7,12.69,3.7,9.51-1.58,13.73-3.17,0-6.87,1.06-8.45,16.91-1.06,20.6,0,9,1.58,11.1-3.69c.65-1.62-.25-2.68-1.69-3.38,4.51,1.12,14.61,4.31,16.47,3.38,2.12-1.05,3.18-1.59,7.93-3.7s1.05-7.4,3.16-6.34-1.58,3.69,1.06,10,13.21-3.18,19-2.12,3.7-2.64,4.23-5.28-.53-2.64-3.17-3.7-5.8-1.06-6.34-4.23,0,0-1.58-2.11-5.81-.52-5.81-.52,4.75-2.12,3.7-6.26-6.34,2-7.41-.62,0,0-2.64-4-9.5,4.59-9.5,4.59,1.58-4.84-2.65-7-6.33,2.64-10.55,4.75-11.1,1.05-9.52-2.39c.41-.88.16-1.36-.4-1.58a32.16,32.16,0,0,0,6.21-5.54c2.64-3.17-2.63-4.76-5.81-4.23s-4.75,0-4.75-3.17-3.7,1.59-7.39,0-4.77,6.34-6.34,7.4-6.35,2.64-6.88,1.06,3.71-7.4,4.23-9,2.65-5.82,8.46-3.17,12.67-3.17,13.2-1.59,4.22,1.59,6.33.53,6.88,2.64,7.41,4.23,5.8,4.23,8.45,4.75a2.07,2.07,0,0,0,2.64-2.11s4.22,4.22,7.39,3.7,0-5.82,2.11-4.76,10,3.17,13.75,3.7,9-2.64,11.62-4.76-3.71-3.16-4.76-4.75-5.28-2.11-3.7-3.16a4.67,4.67,0,0,0,1.06-6.35c-1.59-2.64-8.45,1.06-8.45,1.06s1.05-3.7-1.06-6.34-8.46,0-8.46,0,2.12-3.7.53-5.28-7.39,2.11-7.39,2.11l1.05-4.23c-1.05-3.16-12.67-2.64-12.67-2.64,2.63-7.92,6.87-9,7.92-6.86s2.64.53,6.35,2.11,12.67,0,15.31,3.17,12.15,2.11,16.38-1.06-3.7-3.69-4.76-6.87-7.92-1.58-7.92-1.58,2.64-5.81,0-9-9-1.59-9-4.23-3.7-5.81-4.75-8.45-4.23-2.11-7.93-3.69-6.34,2.11-12.21,1-5.23,4.75-8.4,6.34-5.28-.53-9-.53-5.29,6.87-3.7,10,3.7-1.05,6.87,5.29,14.2-1.06,14.2-1.06-4.7,7.4-5.75,10.57-10,.52-10,.52a24.58,24.58,0,0,0-7.39-2.63,5.15,5.15,0,0,0-5.28,2.63A14.49,14.49,0,0,0,298,482c-4.76,0-3.17,8.45-3.17,8.45-3.17-2.11-5.28,1.58-7.92,4.23s-4.76,2.11-8.45,2.64-5.29,2.11-8.46,3.7,3.17,4.22,4.23,7.39,3.7-.53,6.34-.53,4.08-2.64,6.87,1.06,8.45.53,8.45.53-14.26,25.88-18,28.61-6.87-4.59-6.87-4.59a11.77,11.77,0,0,0,6.87-3.42c3.17-3.17-1.06-6.34-2.64-8.46s-4.23,2.12-6.87,2.12-5.81-1.59-7.93-5.28-5.8,3.16-7.39,0,0,0,2.12-2.11-3.17-4.76-3.71-6.87-3.16-2.65-1.58-3.7,4.76-1.06,6.87-2.64-1.58-2.64-2.65-5.81-3.69-1.06-7.92-.53,0-4.76,0-4.76c2.64-1.05,10-5.81,8.46-11.08s-5.82,0-9-2.12-5.28,0-9-.53-3.16,3.7-3.69,5.81-.53,3.18-2.65,4.23-2.11-6.34-1.58-8.46,5.28-5.81,7.39-9,5.81-6.34,10-2.11,7.92,4.75,10,2.64,4.75,0,8.45,1.06,5.81-3.7,7.4-5.81,4.22,2.11,5.28,6.34,2.11-3.7,4.75-6.34,6.87.53,7.93,6.34,7.4,1.05,11.63.52,6.33-5.81,7.92-9.5,6.34-6.87,5.27-11.63-3.69,0-9,3.7-13.21,1.06-14.8-1.05-6.48-.53-9-3.18-.52-4.22,2.65-7.39,5.81-2.11,7.92.53,1.05,5.29,6.34,6.86,5.27-2.11,5.27-6.33.54-3.7,1.07-7.92-5.82-.54-8.45-1.59-5.82-6.34-3.71-9,6.34,0,12.69,2.11,4.22-3.17,6.86-5.28,10-2.11,18.4-.53.1-3.17,0-5.81-9.42-.53-14.17-2.64,1.59-2.64,10-2.11,1.59-2.65,0-6.87-3.71-2.11-7.4-2.64-13.73,0-12.67-2.12,6.33-2.11,7.39-7.14-10.05-6.59-14.8-9.51,0,0,3.71-4.48-2.64-4.22-5.29-5.28-11.62.53-13.35-2.11,4.9-4.23,3.32-8.45-4.76-5.81-10.55-5.81-5.83,3.17-8.47,1.06,9-6.34,8.45-10.57-10.56-6.87-15.85-8.45-5.81,5.8-11.09,2.64,0,0-3.17.52-.53,7.4-2.64,11.1-4.75,1.58-9,1.06-8.45,0-12.68,0-3.69.52-3.69-2.12,4.21-1.59,8.44-2.11,4.23-4.22,8.45-3.17,4.76-2.12,4.23-6.34-6.34-3.17-8.24-5.81.32-6.34-2.32-9.51-7.39,0-10.56,0-5.82,2.11-9,3.7-1.06,3.7-1.59,6.86-3.69,2.12-7.91,3.18-7.41,4.22-5.81,6.87,2.11,8.45-.53,10-3.69-2.1-5.81-3.69-5.29,2.12-9,3.17-4.23,1.06-5.29,3.17,2.65,5.82,4.23,9-3.7,4.32-3.7,4.32c-4.23-2.55-6.87-.1-13.21,0s-4.22,3.08-9.5,2.55-6.88,4.22-8.45,5.81.52,4.75,1.05,7.69,3.7,6.57,1.06,6-5.29,1.59-7.92,2.33-5.29,4-10.57,5.6-6.82,5.28-6.82,8.61-9.55,3.54-14.84,5.12-3.7,7.4-2.11,11.62,6.33-7.39,9-2.11S124.2,426,129,427.62s10.56,0,7.92,3.17-7.39,1.58-11.62,3.69-1,3.7,2.12,6.87,6.34-1.05,11.61-1.58,9.52-.53,11.63,3.7,5.8,2.63,10.57,1,4.22,1.58,7.93,5.82c2.64,3,6.39-2.13,8.3-5.26,0,1.79.87,5.06,4.37,11.06,2.15,3.69,3.95,3.89,5.47,2.46,1.11,3.51,2.42,7.73,3,9.69,1.05,3.7-.53,3.17-4.76,6.87s.53,4.75,0,7.93-4.23,5.28-7.39,6.86-9,2.11-7.4,0,3.7-6.86,3.7-9.51-4.22-2.11-4.75-4.75,0-3.7-2.64-5.82-6.35-2.11-11.1-1.58-3.69,5.28-6.86,3.7,0-8.45-4.23-10.56-6.34,2.11-9.51,3.69-1.58,4.23-2.11,6.87-3.7,4.76-4.76,2.11-7.87-5.81-12.69-4.23-2.1,9-2.1,9c-4.23,0-4.23,1.58-9.51,3.17s-4.22,5.81-10,3.84-4.76,4.61-9.52,7.78-3.17,3.17-1,11.43,4.23,3.89,3.17,7.06-6.87,2.11-11.62,2.11-4.76-3.7-12.15-6.87S51.3,513.2,43.37,513.2s-9.51,4.22-10,5.8-13.74,6.87-18.48,7.4S1.11,533.8.06,540.14s12.67-3.7,7.93,2.64S2.7,550.17,3.75,554.4s9-2.64,7.41,3.17,10.55,0,14.78,2.64,7.4-6.87,9.51-4.23,13.73-7.39,13.73-7.39a78.71,78.71,0,0,0-4.22,9c-1.59,4.23,6.86.53,11.09.53s7.4-6.34,10-5.28,15.31-10,16.9-10-5.28,5.81-6.87,9.51-1.58,5.81,1.06,4.75,5.81-.53,12.68-.53,0,0,4.23,3.17,3.7-3.7,8.45-4.75,9,2.11,15.32,0-1.58-5.29-3.7-7.4,0-4.75,6.39-2.11,11-2.64,11-2.64,21.66,7.39,24.3,9-4.22,3.17-6.86,2.64-3.17,2.11-3.71,4.69-7.38.59-11.61.06-5.82,2.11-7.4,6.34,2.64,6.34-1.58,7.4-6.87-.53-13.73,0-15.33.53-21.14,3.17-3.17,3.69-.53,7.39,4.23-1.58,3.71,0-1.59,3.17-1.07,5.48,4.76,1.39,10,.34,7.39.52,9,3.15,16.89,7.93,16.89,7.93-16.37-2.1-22.8-4.39-8.36.17-12,0-2.12,1.75-4.24,2.81-5.81,0-9.51-2.11-4.22,1.05-5.81,3.69-2.11,5.29-8.45,6.34S48.12,613,43.9,617.26s-4.75,5.81-.53,9,0,0-3.7,2.1-4.75,6.87-8.45,11.63.53,5.28,4.23,7.39,18-7.39,18-7.39a20.93,20.93,0,0,0-4.23,11.62c-.53,7.4,19.55-4.23,22.19-6.34s2.65.52,3.17,2.64,12-7.92,12-7.92,1.2,3.69.14,6.52,4.23,5.63,6.87,3.51,9.51-2.64,10,0,7.4,4.75,12.68,2.65,7.39-5.82,13.2-2.65,26.93-5.28,31.51-3.17,12.87,10.57,13.92,12.68-2.64,2.11-6.34,3.17-4.75,2.65-7.58,3.17-11.44,3.17-10.38,6.87,6.87,5.28,10.38,4.76,6-1.59,8.64,3.16,10,0,10,0,11.68,24,10.08,33c-.1.61-.2,1.32-.31,2.11C189.13,717.89,193.59,755.38,185,754.35Zm-20.68-147.8a7.75,7.75,0,0,1-3.69,3.31c-4.75,2.12-2.63,5.81-2.63,5.81s-5.81-6.86-9.78-6.15c-2.15.38-4.82-2.15-7.32-4.32.1,1.54-4.17-6.64-6.41-4.85s-1.2,5.82.46,9.31c.36,2.55.33,5.12-1.78,6.54-4.76,3.17-5.81,6.34-11.09,8.46s-8.46,2.11-12.16,0,1.59-6.34,7.93-9S130,613,133.71,610.39a7.8,7.8,0,0,1,1.25-.73c-.43-3.17-1.42-6.31.33-7.19,1.47-.72,3.48.86,5.62,2.73a2,2,0,0,1,.2-1c1-2.45,2.1-5.46,3.69-4.4s6.93,1.58,6.93,1.58a10.68,10.68,0,0,1,5.81-4.75c3.11-1.15,5,5.07,6.79,9.89,1-1.67,1.55-3.25,3.71-3.55.21,0,.4-.06.58-.08-1.87-3.73-4.28-7.84-4.28-7.84a14.37,14.37,0,0,1,6.24.52c3.08,1.06,10.14-3.7,14.37-2.64s3.16,4.75,0,9.71-3.71.33-5.81.17a17,17,0,0,0-5.82.16c-2.49.5-1.69-.41-4.7-.08C170.1,605.87,167.5,598.38,164.33,606.55Zm23.25,32.9c0,3.16-1.58,14.26-4.22,17.43S168,639.45,168,639.45s.53-2.64,2.64-2.11,1.59-7.4,5.28-5.82,3.18-7.4,5.28-2.11,3.17-2.11,6.34,0S187.58,636.27,187.58,639.45Zm34.51-189.23a75.36,75.36,0,0,0,8.81,5.92c3.17,1.59,0,6.87-5.28,10.57s-14.27,13.2-12.76,11.09,1.15-11.62,3.78-16.37A76.09,76.09,0,0,0,222.09,450.22Zm2.36,84.5c-2.13,5.51-5.43,13-8.33,14.92-4.77,3.18-1.59-5.27-.54-7.39s3.71-9.51,6.88-8.73A4.38,4.38,0,0,1,224.45,534.72Zm-15.59-92.39c2.53-1.41,4.44-2.24,4.61-1,.22,1.51,2.64,4,5.63,6.5-3.69,4-9,13.3-9.86,14.1C208.71,462.49,208.71,452.39,208.86,442.33ZM195,446.1c.64,1.43,2.06,1.65,3.82,1.21.66,13.6,1.78,27.64.93,26.79-1.38-1.37-7.31-17.94-8.84-22.23C192.57,447.59,193.82,443.56,195,446.1Zm13.72,173.27c-1.47,1.7-3.7,4.65-6,7.93-2.2-3.07-4.06-5.81-4.06-5.81a30.54,30.54,0,0,1,4.21-6.34c2.12-2.12.54-5.29,4.23-7.4,1.35-.76,4-3.47,6.84-6.61C212.74,607.42,211.21,616.53,208.71,619.37Zm16.91-12.14c-1.05,3.16-4.23,3.16-6.33,3.16-1.71,0,0-11.73.76-16.22,2.6-3.07,4.52-5.44,4.52-5.44s1.05,5.82,1.57,9A19,19,0,0,1,225.62,607.23Zm23.24-73.71c-2.64,2.36-.52,4-1.05,7.14s-2.65,1.59-4.76,3.71,2.64,6.86,1.59,10c-.93,2.78-10,6.79-12.19,7.72a15.57,15.57,0,0,1-2.08-3.49c-1.58-3.71-3.16,4.75-7.91,3.7s-5.3,17.42-8.45,17.42,1-5.81-1.07-7.92-9,6.87-7.39,2.11,8.46-12.68,13.2-15.84c2.82-1.88,7.12-11.91,10.16-19.78a3.86,3.86,0,0,0,2-.21c4.23-1.5-.53-2.73,6.87-4.59s6.87-9.76,10-9.76S251.5,531.16,248.86,533.52Z"/><path class="cls-13" d="M201.47,775.13s60.21-54.67,68.14-57.84h9.51S226,773.47,205.43,798.1C205.43,798.1,199.09,786.22,201.47,775.13Z"/><path class="cls-13" d="M242.91,704.62s-10.71,4-8.48,5.8,4.16-.45,4.09,1.78-6,3.27-4.4,5.21,3.74-2.84,4.25,0-8.25,6.4-4.53,6.84,7.29-2.67,9.07-3.12,1.65,1.81,1.79,3.17a5.24,5.24,0,0,0,7.59,3.52c4.91-2.23,6-3.22,5.88.62s-1.42,6.52,3,4.73,6.25,1.79,9.37,3.13,5.35,1.79,6.69,0,4-.32,6.25,1.18,5.81,3.41,5.35,0,1.35-3.41,4-5.64a4.38,4.38,0,0,0,0-7.14c-2.23-1.78-4.46-.49-5.8-2.7s4-3,2.68-4.59-5.35-2.53-4.46-4.76,4.91-6.7,7.14-5.35,7.14,5.8,8.47,1.79-2.23-7.05-2.23-7.05,5.8,5.71,7.59,3.47,0-2.48,2.68-3.47,2.23,1.69,4.47,2.13,5.8-4.27,7.13-2.13-4,4.81-3.58,7.93,1.79,0,3.8,1.34,2,3.71,0,6.1.22,5.45,4.7,3,8.92-6.32,8.92-3-7.59,8.63-3.58,8.18,9.38-4,9.38-2.67-2.68,8,0,5.79,5.8-8,7.14-5.79,1.78,6.69,4.46,3.56.45-7.64,4.91-6,12,7.82,11.6,3.81-4.91-6.69-4-8.93,6.69,6.4,8.47,2.09.89-7.44,2.68-7.88,2.23,2.22,4.91,2.22,3.12-3.11,4-4.9,1.78.45,4.46-.9,3.57-.25,2.68-3.91,7.13-5,3.57-7.24.89-6.25-4.47-4.91-4.46,5.36-6.69,3.12-.45-3.21-4-3.39-6.69-2-9.37,0-4,3.84-4.92,1.16-3.57-4.67-5.8-2.11,4-7.71,5.35-8.15,1.35-2.68,4,0,3.56-.81,6.24-1.29,5.35-5,7.14-2.73,2.68,7.59,4.47,4.91,1.78-1.78,4.46-3.12,1.84,1,4.48-2.4,3.55,3.39,6.67,0,5.36-9.2,0-9.65-7.13,2.68-8.47,0-3.13-5.36-6.26-6.25-9.36,4.91-10.26,2.24,7.59-10.27,1.79-9.82-7.59.89-9.82,2.22,4-8-.44-6.69-8,9.38-9.82,7.59.89-11-2.68-7.72-9.82,10-10.71,7.27-1.34-6.69-4-3.12-4.91,7.59-4,9.82-.44,2.67-2.22,2.23,0,1.78-2.24,2.23-2.23-2.23-3.12-3.57,0-7.59-2.67-6.25,8.92-4,4-6.69-3.14-7-7.6-2.61-4.46,5.73-8.48,4,2.24-7.65-5.35-5.83-10.71,1.36-10.26,5.38,2.67,7.14-.9,6.25,1.34-8.48-6.69-5.8-3.58,11.6-3.12,13.83,6.24,1.34,5.35,4.46-2.68,2.68-7.14,4-4.46,7.14-2.68,8.47,3.57,9.83-.44,8.49,1.78-6.25-3.58-6.7-9.36,4-9.81,0,2.66-11.6-2.47-7.14.69,11.16-3.34,9.37-5.8-8.93-7.58-5.35,3.12,8-.44,7.14-5.81-4.46-8.49-2.68-1.33,4-3.57,4.91-4-5.35-7.13-1.78-9.29,2.67-5.09,7.14-2.56.44-1.42,4.46S242.91,704.62,242.91,704.62Z"/><path class="cls-14" d="M437.37,1155.65c2.5-12.14,16-39.3,16-39.3-11.47,7.56-18.89,30.19-18.89,30.19,0-15.18,7.81-38.62,7.81-38.62-6.92,8.25-10.38,17.74-12.12,25a359.79,359.79,0,0,0-2.75-38.39c1.3-1.93,4.54-6.91,4-7.69-.66-1-2.75,1.62-2.75,1.62s2.75-6.83,1.53-7.48-3.32,3.09-3.32,3.09,1.15-10.26,0-8.95-1.48,4.39-1.48,4.39-2-6.83-3.58-6.35,0,7.65,0,7.65-3.58-4.39-3.42-2.93,3.58,6.34,3.58,6.34-4.4-1.64-3.59,0,5.17,5.86,5.17,5.86-3.7-.8-3.21.34c.32.75,3,2.61,4.86,3.8,2.78,17.1,2.7,35.16,2.33,45.47-4.72-25.88-14.06-37-14.06-37,5.94,8.67,9.69,46,9.69,46-6.08-23.86-21.11-32.36-21.11-32.36,9.27,10.6,17.64,37.32,17.64,37.32a41.82,41.82,0,0,0-17.64-18c10.13,10.41,22.85,36,22.85,36s9.55,11.34,11.72-1,18.66-33.45,18.66-33.45C443.12,1143,437.37,1155.65,437.37,1155.65Z"/><path class="cls-14" d="M198.55,1170.12c1.74-8.52,11.19-27.55,11.19-27.55-8.05,5.3-13.24,21.16-13.24,21.16,0-10.64,5.47-27.07,5.47-27.07a43,43,0,0,0-8.5,17.56,251.12,251.12,0,0,0-1.92-26.92c.9-1.35,3.18-4.84,2.81-5.39s-1.91,1.14-1.91,1.14,1.91-4.79,1.06-5.24-2.33,2.17-2.33,2.17.81-7.19,0-6.28a7,7,0,0,0-1,3.08s-1.36-4.79-2.5-4.44,0,5.35,0,5.35-2.52-3.07-2.4-2,2.51,4.44,2.51,4.44-3.09-1.15-2.51,0a29.28,29.28,0,0,0,3.62,4.11s-2.59-.56-2.25.23c.22.53,2.12,1.84,3.41,2.67a170.78,170.78,0,0,1,1.62,31.87c-3.3-18.14-9.84-25.94-9.84-25.94,4.16,6.08,6.79,32.23,6.79,32.23-4.26-16.72-14.8-22.68-14.8-22.68,6.49,7.44,12.36,26.16,12.36,26.16a29.19,29.19,0,0,0-12.36-12.59c7.1,7.29,16,25.2,16,25.2s6.7,7.94,8.22-.72,13.07-23.45,13.07-23.45C202.57,1161.26,198.55,1170.12,198.55,1170.12Z"/><path class="cls-15" d="M498.75,1194.93s-96.39,1.85-101.42-.34,7.42-15.93,16-23.33,39.33-20.57,51.4-9.59l12.62,10.7S497.11,1179.94,498.75,1194.93Z"/><path class="cls-15" d="M220.87,1192.78s-9.85,4.88-28.57,2.94c0,0-6.9-1.51-11.33-1.24s-11.82,1.69-15.76,0,0-17.14,4.43-18.77,8.88,2.62,12.32,0,11.5-11.45,16.92-11.93,10.54,2.39,13.8,5.12C217.61,1173,222.84,1186.82,220.87,1192.78Z"/><path class="cls-15" d="M515.21,1187.52s24.35,5.51,48.7,0c0,0-1.51-10.21-10.83-13.6s-7.14-3.66-10.42-6-13.18-4.92-17.57.49S515.21,1180.91,515.21,1187.52Z"/><path class="cls-5" d="M842.49,397.64s-15,0-19.78-7.59-16.83-3.43-33.13-8.05-5.34-3.64-12.56,0-14.42-10.54-34.47-14.2-49.7,14.2-49.7,14.2c-6-8.12-17.7-11.22-17.7-11.22-17.18-5.86-49.64.68-49.64.68s-6.61.7-16.83,10.34c-2.75,2.57-6.39-.4-12-1.72-7.41-1.74-13.83-2.41-18.78,3.9-6.67,8.52-15.49,2.3-15.49,2.3s-15.63-7.24-30.67,5.85c-8.86,7.72-1.66,1.44-19.24-1.37-18.67-3-31.26,9.64-31.26,9.64-31.26,4.13-40.88,12.4-40.88,12.4H692.85l157.76,1.27a5.2,5.2,0,0,1-1.44-4.7c1.32-7,0,0,9.26-5.57,4.65-2.79,2.3-4.53-1.53-6.1A141.32,141.32,0,0,0,842.49,397.64Z"/><path class="cls-5" d="M850.49,460.87c-1.32-8.3,9.26-2.82,10.8-9.77s-1.54-7-2.33-15.3a20.62,20.62,0,0,1,0-3.77c-18.53-1.22-43.24,13.67-43.24,13.67-5.62-7.6-16.55-10.49-16.55-10.49-16-5.48-46.43.64-46.43.64s-6.17.65-15.73,9.66c-2.56,2.41-6-.37-11.25-1.6-6.93-1.63-12.94-2.26-17.56,3.65-6.24,8-14.49,2.15-14.49,2.15s-14.62-6.77-28.68,5.47c-8.29,7.22-1.55,1.34-18-1.29-17.45-2.8-29.22,9-29.22,9-29.24,3.87-38.24,11.6-38.24,11.6H815.71l42.72.34v-1.5C858.43,469.18,851.82,469.18,850.49,460.87Z"/><path class="cls-1" d="M108.38,256.69c14.55-4,21.17-4.4,25.14-2.86s7.94,4.65,13.23,3.76,16.14-3.81,22.62-3.68,6.48-.13,13.09,0,9.26.14,13.23-3.83,11.91-7.93,15.88-6.61,13.23,7.4,17.19,7,19.84-.93,27.78,0,14.55-2.25,18.52,0,9.26-11.5,14.55-7.27,10.59,4.2,15.87,6.86,23.48,0,25,0,4.14,2.63,14.72,0,15.87,4,21.17,0,7.93-11.39,14.54-7.67,19.85-1.77,26.47-1,23.81,2.08,15.87-5.86-12.09-5.47-22.58-6.7-13.14-5.21-19.76-13.14-10.58-15.87-21.16-11.91-9.26,7.15-15.87-1.05S331.94,176,316.07,187.91s-26.46,22.49-30.43,15.87-15.87-5.29-23.8,0-5.07,10.58-15.77,9.26-17.31,10.58-23.93-1.32,1.33-28.93-18.51-27.69S188,189.28,169.37,184s-12.05-10.6-33.21-11.93S122.93,187.91,111,187.91c-10.17,0-15.53-13.61-28.83-15.88.52,1.43.8,2.76.22,3.72-2,3.33,0,9.95,0,9.95v34.8l-7.08,5.79s3.78,7.46,7.08,10,0,5.8,0,5.8-7.27,4.14-7.72,6.62c-.26,1.36.71,3,2.38,4.83C86.25,256.17,99.58,259.1,108.38,256.69Z"/><path class="cls-16" d="M648.76,288.64s-4.46-7.88-11-4.64c0,0-1.89,1.25-7.71,4.6a43,43,0,0,1-12.93,5.06s-.9-.09-2.33-.38c7.67-5.75,19-20.69,19.73-21.91a1.43,1.43,0,0,0-.54-2.29c-.3-.17,5-4.84,6.55-6.62s-2.14.25-2.69-1.28,2.22-3.27,4.08-4.73-3.34.21-4.52-.74,3.41-2.92,6.05-5-5.35,1.66-6.84,1,3.72-3.22,5.3-5.6-4.58,1.69-6.1,1.34,5-5,6.6-8-4.94,3.49-7.07,4,6.89-8,8.51-11.85S635.46,239,633,240.76s5.38-7.71,5.16-10.75-8.23,12.18-9.1,11.23,7.31-12.19,7.36-13.7-3.07,1.43-3.07,1.43c-4.35,4.71-10,15.74-13.07,18.38s-10.29,26-16,32.21c-1.34,1.48-3,3.17-4.61,4.69a17.31,17.31,0,0,1-1.56-2.7c-5-10.85,5.84-21.3,2.54-24.68S574,226.76,572,222.9c0,0-3-3.35-4.37-2s9.55,10.72,8.82,11.85-1.6.75-2.74,0-11.34-10.9-12.1-9.45,10.06,8.63,8.17,9.35-12.79-5.88-12.34-4.31,7.72,4.74,8.54,5.74,3.31.34.8,1-13.5-4.74-13.65-3.23,12,4.57,11.9,5.48-11.64-2.11-12.4-.67,9.57,1.6,9,4.57c0,0-12.93-4.37-13.12-2.56s14.27,3.29,14.68,5.15-14.08-2-15.15-.63-1.81-.1,1.95,1.76,15.63,1.86,15.17,3.34-15.4-1-15.28.86,2.7,2.7,3.78,2.82,13.18-2.3,12.12-.88-14.05,3.11-12.46,4.19,9.6-3,11.23-1.12-12.27,4.06-10,5.5,10.56-2.25,10.14-1.08-8.52,3.08-6.48,3.89,6.59-2,6.77-.82c0,0-1.89.72-1.15,2.31s3,0,3.19,1.55-1.66,4.39-1.5,5.62,3.52,4.27,4.09,4.66-1.52,14.77,2.19,20a2.48,2.48,0,0,0-.09,3.93c2.22,2.06.69,2.2,5.47,3s5.58.87,6.4,2.79c.66,1.52-2.64,2.57-5.68,2.91-.74.06-1.46.1-2.2.14h0c-3.35,0-7.66-3.82-7.8-.45,0,.42,0,.77,0,1.06s-.13.46.08.66c.2.64.79.73,2.38.94,1.54.86.55,2.44-.66,2.95-1.4.58-8.72-3.76-10.48-4.21s-4.72.17-3.93.78-1.8.89-1.14,2c0,0,4.18,2,2.78,2.57s-7.84-1-7.92.5,4.55-.73,4.69,1.18-6.16,2.19-4.85,3.14,5.72.83,3.52.9-6.09,3.13-6.09,3.13,3.22.82,2.85,2.29-3.16,2.63-2.43,3.44,1.84,1.4,1.25,2.49-1.7,3-.45,3,3.73.07,3.8,1,1.09.63,2.63.67-1.89,2.6-.72,2.9,10.35-3.93,12.26-5.32,5-5,7.25-6.6,8.76,1.28,11.25,1.28c0,0,8.3,1.41,14.54-1.94,7.4-4,8.9-6.49,12.07-7.88s5.85-4.52,9-8.2c4.17-4.79,10.3-12.78,13.51-15,4.75-3.23,8.85-.87,11.55-.69,3.5.21,4.89-.05,6.42.08,5.85.53,5.85.53,6.59-.43Z"/><path class="cls-16" d="M523.57,375.15s-2.45-4.33-6-2.55c0,0-1,.69-4.24,2.52a23.77,23.77,0,0,1-7.1,2.79s-.49-.05-1.29-.22c4.22-3.15,10.41-11.35,10.84-12a.78.78,0,0,0-.29-1.25c-.17-.1,2.73-2.67,3.6-3.64s-1.18.13-1.49-.7,1.22-1.8,2.25-2.6-1.83.12-2.49-.41,1.87-1.6,3.33-2.72-2.93.91-3.76.55,2-1.77,2.91-3.07-2.52.93-3.34.73,2.73-2.74,3.62-4.38-2.72,1.92-3.89,2.22,3.78-4.38,4.67-6.51-4.6,4-6,5,3-4.23,2.84-5.9-4.52,6.68-5,6.17,4-6.7,4-7.53-1.69.78-1.69.78c-2.38,2.59-5.47,8.65-7.17,10.1s-5.66,14.29-8.77,17.69c-.73.81-1.67,1.74-2.54,2.58a10.67,10.67,0,0,1-.84-1.49c-2.73-6,3.2-11.69,1.39-13.55S482.5,341.17,481.38,339c0,0-1.65-1.84-2.39-1.08s5.24,5.89,4.84,6.51-.88.41-1.5,0-6.24-6-6.65-5.19,5.52,4.74,4.48,5.13-7-3.23-6.78-2.36,4.25,2.61,4.69,3.15,1.82.2.45.55-7.41-2.6-7.5-1.77,6.59,2.51,6.54,3-6.4-1.16-6.81-.37,5.24.87,4.92,2.51c0,0-7.1-2.39-7.2-1.41s7.83,1.81,8,2.84-7.73-1.13-8.32-.35-1-.06,1.08,1,8.58,1,8.33,1.84-8.47-.54-8.4.47,1.49,1.49,2.07,1.55,7.24-1.26,6.67-.49-7.72,1.71-6.85,2.3,5.27-1.62,6.17-.61-6.74,2.23-5.49,3,5.81-1.24,5.58-.6-4.68,1.7-3.56,2.14,3.62-1.13,3.72-.45c0,0-1,.39-.64,1.27s1.68,0,1.76.85-.91,2.41-.82,3.09,1.93,2.34,2.25,2.55-.84,8.11,1.2,11a1.37,1.37,0,0,0-.06,2.17c1.22,1.13.38,1.21,3,1.64s3.06.49,3.52,1.54c.35.83-1.45,1.4-3.12,1.6-.42,0-.8.06-1.21.07h0c-1.84,0-4.21-2.09-4.29-.24,0,.23,0,.41,0,.57a.3.3,0,0,0,0,.38c.1.34.43.39,1.29.51.86.47.32,1.34-.35,1.62s-4.79-2.07-5.76-2.31-2.59.09-2.16.42-1,.49-.62,1.1c0,0,2.29,1.09,1.53,1.42s-4.31-.58-4.35.27,2.49-.4,2.57.65-3.38,1.2-2.66,1.73,3.13.44,1.94.48-3.36,1.73-3.36,1.73,1.78.45,1.57,1.25-1.73,1.45-1.33,1.89,1,.77.68,1.37-.94,1.66-.24,1.66,2,0,2.09.54.6.34,1.45.36-1.05,1.44-.41,1.6,5.69-2.17,6.74-2.92,2.73-2.74,4-3.62,4.82.69,6.17.7c0,0,4.56.76,8-1.07,4.06-2.17,4.89-3.56,6.62-4.33s3.22-2.48,5-4.5c2.29-2.63,5.67-7,7.43-8.23,2.6-1.77,4.86-.47,6.34-.38,1.92.12,2.68,0,3.53.06,3.21.28,3.21.28,3.61-.25Z"/><path class="cls-13" d="M781.91,1114.5c.73-2.94,2.93-25.45,2.93-25.45-.36-9.92-14.18-30.73-17.85-33.3s-7.77-19.46-11.81-22.76-8.81-9.55-10.28-11.39-8.81-8.07-11.74-9.18-12.12-2.93-14.69-4.4-14.68-9.55-18.36-12.11-11-7.72-17.62-9.18-31.75-2.57-38-2.94-22.39-4.77-29.37-6.24-11.74,1.1-19.09,2.2-21.66,1.47-21.66,1.47c-2.2-1.47-10-3.94-13.27-5.41s-3.67-2.56-6.24-3.53-15.52,1.8-19.18,1.8-23.27,3.68-23.27,3.68-5.64-9.77-7.84-11.61-12.85-8.59-13.95-10.42S489,963.6,489,963.6a29.44,29.44,0,0,1,1.56,10.88c0,1.39,0,2.57,0,3.57-6.3-3.86-17.07-10.53-18.44-11.9,0,0,.49,1.47,0,5.38-.38,3.05,1.61,10.25,5.06,17-2.08,3-3.58,16.8-3.58,16.8s-9,7.13-12,10.08a107.47,107.47,0,0,0-7.35,8.8s6.1,10,14,11c3.63.47,16-5.2,16-5.2,8.47.65,9.23,3.77,14.37,3.77s14.06,5.2,14.06,5.2a153.94,153.94,0,0,1,11.15,14.83L540.25,1064c-4,4-20.9,25.14-20.9,25.14-3.68,2.57-4.41,15.78-3.31,20.55s2.58,19.46,2.94,21.29,5.14,1.84,5.14,1.84c7.34-3.67.73-16.52,1.47-21.28s4.77-9.93,4.77-9.93c3.68-3.29,12.65-10.06,28.1-15.25a30,30,0,0,0,13.45-9c2.57,2.2,13.15,19.51,13.52,25s-2.58,29-2.58,31.94-.36,9.18-2.2,10.28-3.31-1.47-7.34-1.83-5.51,5.49-7,7,3.31,1.48,3.31,1.48,8.81,1.09,12.12.73,5.5-.37,6.6-3.68,2.2-10.64,6.23-18.72,10.66-21.29,12.13-26.06-4.64-29.36-4.64-29.36,11.26,2.18,23,3.29,25.7-5.51,30.84-6.62,9.91,5.53,9.91,5.53c.89,5.47.29,32.36,2.49,37.5s8.44,10.65,7.35,17.62-11.75,16.88-13.59,18-4-.37-8.07,0-4.4,3.3-5.88,5.14,5.5,2.57,5.5,2.57,9.92,0,12.86-2.21,17.25-13.57,20.18-16.88-.36-7,1.48-15.79,11.81-47,11.81-47c.37.74,4.77,13.95,10.64,18.72s15.73,12.54,19.4,15.84,7.7,10.65,11,15,4.41,14.32,5.51,17.62a6.59,6.59,0,0,1-3.67,8.08c-2.94,1.1-3.68-2.21-7-.73s-2.57,7.34-2.57,7.34H748s2.94-5.51,4-7.34,2.93-5.51,2.93-5.51c-.36-1.47-1.1-9.18-2.56-16.15s-3.25-33.83-3.61-37.14-2.94-11.38-2.94-11.38C749.26,1083.25,781.91,1114.5,781.91,1114.5Z"/></g></g></svg>