<svg xmlns="http://www.w3.org/2000/svg" viewBox="0 0 1043.66 1221.26"><defs><style>.cls-1{fill:#98cd73;}.cls-2{fill:#4db967;}.cls-3{fill:#a7babb;}.cls-4{fill:#a9d37e;}.cls-5{fill:#c6de8b;}.cls-6{fill:#d8e481;}.cls-7{fill:#e9a470;}.cls-8{fill:#43a452;}.cls-9{fill:#2c855e;}.cls-10{fill:#d28766;}.cls-11{fill:#002b26;}.cls-12{fill:#002a24;}</style></defs><g id="Layer_2" data-name="Layer 2"><g id="Capa_1" data-name="Capa 1"><path class="cls-1" d="M939.78,544.58h-760s-9.73-12.78-7.22-17.05,11.95-7.1,7.22-12.78-9.73-14.21-7.22-18.47,11.95-7.11,7.22-14.22-8.35-12.78-7.89-17,7.89-11.37,7.89-11.37,3.39-5.68,0-9.95-7.22-17-7.22-17l7.22-10V357s-2-11.37,0-17.05-6.07-18.47,0-21.31,760,0,760,0,1.34,7.1,0,11.36-1.35-5.69-1.35,4.26,2.54,12.79,1.94,18.47,3.5,7.11.09,17.05,6.07,9.95-.68,17.06-14.88,9.93-12.16,14.2,21.61,5.68,12.16,11.37-8.12-1.43-9.47,5.68S941,426.82,942.4,431s-2.89,5.6-2.09,14.12,4,8.53,2.38,15.63-12.38,1.5-11,10,8.12,8.48,8.12,12.75v17.05c0,4.26,4.05,7.1,0,11.37s-13.52,4.25-13.52,8.52,20.27,8.53,13.52,11.37S939.78,544.58,939.78,544.58Z"/><path class="cls-2" d="M491.38,514.54c-6.21-9.52-11.24-3.18-9.66-9.52s7.93-15.87,9.52-28.55-11.1-25.39-17.45-22.22-14.27-3.17-12-11.11-5.47-6.34-18.16-9.52-7.94-3.17-4.76-7.93,17.45-10.36,22.21-19-15.86-7.93-22.21-17.45-15.87,1.59-22.22,8.93-15.86-1-27,0-7.93,17.2-4.76,17.2,14.28,7.19,20.63,13.53-7.93,9.52-20.63,4.76,0,0-4.76-3.17-9.51-3.17-14.27-4.76-11.12,1.59-15.87-10.36-22.21-7.09-23-7.09-16.71,11.11-19.34,14.28-11.65,14.28-25.93,15.86-12.69,12.7-12.69,12.7c-1.58,4.76-11.1,0-19,0s-8,9.51-8,18.12,9.53,4.09,14.29,13.61,19,6.34,19,6.34c7.93,7.94,30.15,3.18,23.8,6.35s-3.18,12.7-9.52,17.45,9.52,17.46,16.6,26.14-15,5.6-19.77,0-14.29,5.6-14.29,0,3.18-16.61-3.17-18.2-14.28,0-17.45-4.76-15.87,1.59-15.87-6.35,0,0,7.94-3.17-3.19-11.11-3.19-19-9.51-6.35-12.68-15.87S212,482.81,212,482.81a65.77,65.77,0,0,0-19,0c-9.51,1.58-14.27,11.1-15.86,23.25s14.28-7.38,19,2.14,20.63-7.94,15.87,0-14.29,7.93-22.22,7.93-3.17,17.45-9.52,22.93a33.61,33.61,0,0,0-2.64,2.51c1.19,1.8,2.11,3,2.11,3H498.87C498.16,531.82,496.12,521.79,491.38,514.54Z"/><path class="cls-2" d="M775.24,523.59c-6.38-4.72-3.27-14.26-9.62-17.39s15.87,1.49,23.75-6.5c0,0,14.29,3.09,19-6.46s14.25-5.1,14.2-13.7-.11-18.11-8.05-18.06-17.42,4.86-19,.11c0,0,1.51-11.11-12.78-12.61s-23.37-12.55-26-15.71S738,419.11,737.27,419.11s-18.23-4.74-22.91,7.23-11.07,8.84-15.82,10.46-9.51,1.64-14.24,4.84,7.92-1.64-4.74,3.2-27,1.76-20.66-4.63,17.37-13.64,20.55-13.66,6.24-16.24-4.87-17.17-20.58,7.47-27,.17-16-18.36-22.28-8.8-26.91,8.93-22.09,17.59,19.11,14.16,22.33,18.9,8,4.71-4.71,8-20.44,1.71-18.11,9.63S597.2,469.15,590.83,466s-19,9.62-17.3,22.31,8.05,22.17,9.68,28.5-3.44,0-9.59,9.58c-3.12,4.84-5,10.9-6.16,18.17h196C771,536.6,780.42,527.43,775.24,523.59Z"/><path class="cls-3" d="M875.2,526.16c-7.92,0-17.44.11-22.25-7.8s11.16,9.45,15.87-.1,20.69,9.89,19-2.25-6.49-21.62-16-23.15a65.71,65.71,0,0,0-19,.12S840,472.42,836.86,482s-12.64,8-12.59,15.94-11,15.93-3.07,19.06,7.91-4.81,8,3.12-12.68,1.66-15.82,6.45-11.1,3.23-17.43,4.86c-4.74,1.22-4.12,7.66-3.5,13.18h89.78C879.85,537.33,881.56,526.12,875.2,526.16Z"/><path class="cls-4" d="M907.17,301.38h-760s-9.74-7.62-7.23-10.16,12-4.23,7.23-7.62-9.74-8.46-7.23-11,12-4.23,7.23-8.46-8.36-7.62-7.89-10.15,7.89-6.77,7.89-6.77,3.38-3.39,0-5.93-7.23-10.16-7.23-10.16l7.23-5.91V189.67s-2-6.76,0-10.15-6.08-11,0-12.7,760,0,760,0,1.36,4.24,0,6.78-1.35-3.39-1.35,2.53,2.56,7.62,1.95,11,3.49,4.22.1,10.15,6.07,5.93-.7,10.16-14.86,5.92-12.16,8.45,21.62,3.39,12.16,6.78-8.1-.86-9.45,3.38,10.66,5.18,12.08,7.66-2.89,3.34-2.08,8.42,3.94,5.08,2.37,9.31-12.37.89-11,5.94,8.1,5.06,8.1,7.59v10.16c0,2.54,4.05,4.23,0,6.77s-13.5,2.54-13.5,5.07,20.27,5.09,13.5,6.78S907.17,301.38,907.17,301.38Z"/><path class="cls-5" d="M931.49,149.37h-760s-9.73-4.65-7.23-6.19,12-2.58,7.23-4.65-9.73-5.16-7.23-6.71,12-2.58,7.23-5.16-8.36-4.65-7.9-6.19,7.9-4.14,7.9-4.14,3.37-2.06,0-3.61-7.23-6.2-7.23-6.2l7.23-3.61V81.23s-2-4.12,0-6.19-6.08-6.71,0-7.74,760,0,760,0,1.35,2.58,0,4.13-1.34-2.07-1.34,1.55,2.55,4.64,2,6.7,3.48,2.59.09,6.2,6.07,3.61-.7,6.19-14.86,3.62-12.16,5.16,21.62,2.07,12.16,4.13-8.1-.51-9.45,2.07,10.66,3.15,12.09,4.67-2.91,2-2.09,5.14,3.94,3.09,2.38,5.67-12.38.55-11,3.63,8.1,3.09,8.1,4.63v6.2c0,1.54,4.06,2.58,0,4.12S918,139,918,140.59s20.27,3.1,13.5,4.13S931.49,149.37,931.49,149.37Z"/><path class="cls-6" d="M915.28,50.06h-760s-9.73-2.82-7.24-3.76,12-1.57,7.24-2.82-9.73-3.13-7.24-4.07,12-1.56,7.24-3.13-8.36-2.81-7.89-3.76,7.89-2.5,7.89-2.5,3.37-1.25,0-2.2A27.55,27.55,0,0,1,148,24.07l7.24-2.19V8.73s-2-2.51,0-3.76-6.08-4.07,0-4.69,760,0,760,0,1.35,1.56,0,2.5-1.34-1.26-1.34.94,2.55,2.82,1.94,4.07,3.49,1.57.09,3.75,6.07,2.2-.69,3.77-14.86,2.18-12.16,3.12,21.62,1.26,12.16,2.51-8.11-.31-9.46,1.26,10.67,1.9,12.1,2.83-2.9,1.23-2.09,3.11,3.94,1.88,2.37,3.44-12.38.33-11,2.21,8.11,1.86,8.11,2.8v3.76c0,.94,4.05,1.57,0,2.51s-13.5.94-13.5,1.87,20.26,1.88,13.5,2.51S915.28,50.06,915.28,50.06Z"/><path class="cls-7" d="M163.53,847.24s3.79,69.41,8.28,74.26-1.26,30.68,0,42-11.6,6.67-15.5,11.3,7.22,8.26,0,17.26-.25,4.17-7.23,9,5.32,12.48,7.23,15.7,4.56,17.76,0,22.61-8.36,21-11.59,29.06,9.68,9.69,11.59,16.15-.29,9.69-2.73,11.58,2.44,7.8,2.73,12.63,6.17,9.69,0,14.54-.29,11.3,2.55,12.8,5.24,11.42,1.54,12.74.47,16.44,0,24.21,10.14,8.37,3.12,15.56,0,21.38,0,21.38h760s3.82-22.12,0-27.77.76-12.09,1.7-16.94-1.7-16.44-1.7-16.44,4.4-8,1.9-12.74.31-4.73-1.9-14.41,4.31-11.31,2.66-17.76,2.77-14.54-2.66-22.61,3.82-11.31,0-21-13.52-14.54-8.67-22.6,14.1-9.7,8.67-16.15-13.52-12.92-8.67-19.38,17.33-6.1,8.67-19.19S908.43,890.82,910,886s13.52-85.35,13.52-85.35,3.82-17.12,0-26.44-1-12.54,0-17.38-1-8.55,0-18,6.56-14.3,3-22.36-8.85-11.78-3-21.24,31.64-12.67,19.57-17.52-22.21-12.92-19.57-17.76,11.51-3.23,9.49-11.3-15.36-3.14-9.49-14.49,14.73-22.65,9.49-29.11,2-16.14,0-25.83-9.49-17.73-9.49-17.73h-760V847.24"/><path class="cls-2" d="M163.53,847.24s3.79,69.41,8.28,74.26-1.26,30.68,0,42-11.6,6.67-15.5,11.3,7.22,8.26,0,17.26-.25,4.17-7.23,9,5.32,12.48,7.23,15.7,4.56,17.76,0,22.61-8.36,21-11.59,29.06,9.68,9.69,11.59,16.15-.29,9.69-2.73,11.58,2.44,7.8,2.73,12.63,6.17,9.69,0,14.54-.29,11.3,2.55,12.8,5.24,11.42,1.54,12.74.47,16.44,0,24.21,10.14,8.37,3.12,15.56,0,21.38,0,21.38h760s3.82-22.12,0-27.77.76-12.09,1.7-16.94-1.7-16.44-1.7-16.44,4.4-8,1.9-12.74.31-4.73-1.9-14.41,4.31-11.31,2.66-17.76,2.77-14.54-2.66-22.61,3.82-11.31,0-21-13.52-14.54-8.67-22.6,14.1-9.7,8.67-16.15-13.52-12.92-8.67-19.38,17.33-6.1,8.67-19.19S908.43,890.82,910,886s13.52-85.35,13.52-85.35,3.82-17.12,0-26.44-1-12.54,0-17.38-1-8.55,0-18,6.56-14.3,3-22.36-8.85-11.78-3-21.24,31.64-12.67,19.57-17.52-22.21-12.92-19.57-17.76,11.51-3.23,9.49-11.3-15.36-3.14-9.49-14.49,14.73-22.65,9.49-29.11,2-16.14,0-25.83-9.49-17.73-9.49-17.73h-760V847.24"/><path class="cls-8" d="M923.56,1081.35c-5.44-8.07,3.82-11.31,0-21s-13.52-14.54-8.67-22.6,14.1-9.7,8.67-16.15-13.52-12.92-8.67-19.38,17.33-6.1,8.67-19.19S908.43,890.82,910,886c.46-1.35,1.7-8.56,3.27-18.26-5.16-4.55-9.14-.53-2.74-7,1.46-1.48,3-2.88,4.52-4.23,3.86-24.71,8.47-55.87,8.47-55.87a83.86,83.86,0,0,0,1.56-11.45,15,15,0,0,0-7,1.69c-14.24,6.43-25.28,16-23.75,6.5s11-23.89,23.62-30.3c1.19-.61,2.44-1.14,3.7-1.64.08-3.38,1.31-5.73,1.92-8.62a16.19,16.19,0,0,0,.23-4.38c-1.22-1.1-1.24-3.2-.45-5.89a45.87,45.87,0,0,1,.22-7.73c1-9.45,6.56-14.3,3-22.36-.48-1.09-1-2.09-1.5-3-10.27,19.3-32.74,60.16-38.8,60.2-5.64,0-4.27-33.67-3-53.16,3.43,1.6,6.54,3.28,13.81,2.32,7.83-1,18.66-8.14,25.79-13.41-2.15-4.16-3.15-7.89.73-14.15,5.87-9.45,31.64-12.67,19.57-17.52s-22.21-12.92-19.57-17.76,11.51-3.23,9.49-11.3c-1.46-5.87-8.88-4.89-10.59-8.25a6.36,6.36,0,0,0-6.88,2.21c-7.88,8.72-17.32,19.87-12.53,26.2s17.49,6.24,12.78,12.62-11.1,1.65-14.24,8-.24,9.52-8.06,4.8,0-22.2-11.07-19a18.54,18.54,0,0,1-3.86.65c3.75-5.45,5.47-12.41,2.17-18.1-6.41-11.06-11.18-12.68-19.14-17.36s-11.2-15.77-16-12.57c-3.41,2.31,3.74-13.48,8-22.55,3.93,2,9.45,2.94,17.25,1.76,0,0,6.24-19.07,14.2-14.35s-1.56,4.76,8,4.71S890,589.54,907.42,591s25.27-6,23.65-11.78a12.08,12.08,0,0,1,.16-5.71,46.14,46.14,0,0,0-7.67-12H566.15c-.06,2.52-.09,5.1-.07,7.83.11,19,11.27,28.49.23,38.08s-26.93,6.54-18.93,18.37c6.41,9.47,7.11,32.69,2.52,40-3.15-1.64-7.23-1.16-6.3-6.82,1.6-9.53-14.28-6.34-23.24-3.18s-10.07-30.13-2.14-42-7.93-8.75-19-18.27c-10.29-8.81-1.55-17.64-.19-34H163.53V581c8.76.6.59,6.5,8.81,6.5,9.52,0,0,0,7.93-4.76s14.27,14.28,14.27,14.28c7.81,1.11,13.34.18,17.24-1.88,4.35,9,11.58,24.78,8.16,22.49-4.76-3.16-7.93,8-15.87,12.67s-12.69,6.38-19,17.48c-3.25,5.71-1.49,12.67,2.29,18.09a18,18,0,0,1-3.87-.63c-11.11-3.17-3.18,14.29-10.95,19s-4.93,1.58-8.1-4.75a7.59,7.59,0,0,0-.87-1.36v33.18a26.72,26.72,0,0,0,5.63,1.5c7.27.9,10.37-.79,13.79-2.41,1.38,19.47,3,53.17-2.68,53.17-2.87,0-9.48-9.15-16.74-20.8v27c4.76,5.93,7.95,12.47,8.81,17.61.95,5.72-2.69,4.56-8.81,1.37v58.44s3.79,69.41,8.28,74.26-1.26,30.68,0,42-11.6,6.67-15.5,11.3,7.22,8.26,0,17.26-.25,4.17-7.23,9,5.32,12.48,7.23,15.7,4.56,17.76,0,22.61-8.36,21-11.59,29.06,9.68,9.69,11.59,16.15c1.51,5.16.41,8.23-1.32,10.23,7.71,3.23,20.3,3.72,26.87.44,9.52-4.76,12.68-1.59,12.68-1.59s11.11,4.76,19.06,3.18,6.34-14.29,15.86-9.53c4,2,14.52,5.33,25.84,7.55.35.65.73,1.3,1.13,2,2.22,3.68,4.08,2.22,6.4-.71,3.24.45,6.43.76,9.44.88-.16,1.4-1,11.15,6.36,14.1,7.95,3.17,22.23,3.17,33.33-6.34s21.75,11.1,21.75,9.51,17.91-4.75,25.85-9.51S370.67,1119,377,1126.2s3.17-19.85,11.11-23,15.87,17.46,27,22.21,0-12.68-1.59-19,23.8,4.76,23.8,4.76C477,1127,500.77,1100,500.77,1100s14.28-6.34,17.45-20.62a13.57,13.57,0,0,0-.19-6.89,25.85,25.85,0,0,1,6.69,0c11.11,1.52,20.61-2.88,28.57,1.62,1,.59,2.09,1.22,3.16,1.88-4.18,3.41-7.8,8.48-6.23,15.38,3.25,14.24,17.58,20.52,17.58,20.52s24,26.82,63.53,10.71c0,0,25.31-11.25,23.77-4.9s-12.55,23.88-1.47,19,18.88-25.5,26.84-22.37,4.94,30.16,11.24,23,9.36-26.25,17.32-21.55,25.89,7.78,25.91,9.37,10.52-19.11,21.69-9.65,25.44,9.36,33.36,6.13c7.33-3,6.45-12.73,6.28-14.12,3-.15,6.2-.48,9.43-1,2.34,2.92,4.22,4.37,6.41.66.4-.67.78-1.32,1.12-2,11.3-2.29,21.85-5.7,25.8-7.71,9.48-4.82,8,7.88,15.92,9.43s19-3.29,19-3.29,3.15-3.2,12.7,1.51,31.74,1.39,33.27-6.55a7.14,7.14,0,0,1,6.4-6.09A17.67,17.67,0,0,0,923.56,1081.35ZM312,958.79c11.11-4.76,7.93,6.35,12.1,14.28,3,5.84-4.07,4.81-11.2,7.94C309.72,969.16,308.65,960.22,312,958.79ZM259.6,587.53c9.85,4.34,17.45-9.53,25.39-4.76s11.1-7.94,15.87-12.7,9.51,23.81,0,23.81-7.94,19-17.46,11.1-7.93,12.68-15.86,9.52-10.63,1.58-10.63,1.58l-7.18-33C253.71,584.9,257.24,586.48,259.6,587.53Zm-41.54,1.58c4.66-8.24,1.88-19.57,1.88-19.57l15.9,7.26,9.49,39.28H235.8l-14.27-27Zm-6.45,190.4c-9.92,3.17-2.78,4.76-10.71-3.18-5.43-5.43-7.88-44.18-8.89-68.19l1,0c11.11,0,15.87-4.77,17.46-12.71s1.59-14.27,0-25.38a7,7,0,0,0-1.48-3.66c2.25-5.49,4.1-11.5,9.41-10.63,9.52,1.6,17.45,9.53,30.14,11.12s0,0,6.35,6.34-3.17,17.45-12,15.87-7.07,9.52-13.41,6.34-9.52,9.52-14.28,17.47-7.94,6.33-14.28,12.68,11.11,3.17,17.45,11.11,22.2-7.94,24-6.35-1.81,11.11-.22,19-6.34,7.92-17.45,14.27S221.53,776.33,211.61,779.51Zm51.17,282.41c-.82,1.21-1.52,2.3-2.13,3.28-5.22-2.07-9-3.28-9-3.28s-27,4.77-17.45-6.35-23.8-23.8-9.53-23.8,9.53-9.51,14.28,0,7.94-1.58,17.46,4.76c3.82,2.54,10.44,8.93,17,15.65C269.9,1053.66,266.12,1056.91,262.78,1061.92Zm55.53-12.7c-7.94,11.11,0,0-6.35-4.75s-9.52-3.17-14.28,4.75a12.65,12.65,0,0,1-4.24,4.55L269.12,1027s-3.18-14.28,4.76-17.45S253.26,990.52,258,986.52s3.17-3.93,11.1-7.09,7.93-7.95,7.93-7.95c7.43,1.07,29,41.76,42.51,68.68a.71.71,0,0,0,.16.31l1.13,2.26C321,1044.06,320.57,1046.07,318.31,1049.22Zm14.13-12.58c-3.09-7.68-6.89-17.39-10.47-27.33a11.67,11.67,0,0,0,5.11-1.33c11.95-6.35,10.27,3.18,19.79,12.7C355,1028.82,344.56,1033.48,332.44,1036.64Zm147.56-13s-12.71.08-11.06,8l1.63,7.92-.72,0a2.82,2.82,0,0,1-.81-1.41c-1.58-6.36-7.94-9.52-7.94-9.52s9.52-6.35,17.46-7.93a6.31,6.31,0,0,0,3.2-1.8C482.79,1021.68,482.82,1023.58,480,1023.6Zm39.81-317c-4.93,0-7-5.75-2.43-12,6.28,3.54,17.61.91,25.69,6.62.25.17.46.34.7.53C537.34,701.39,524.14,706.54,519.81,706.56Zm4.75,242.73c0-1,3.76-9.49,7-17.27a7.34,7.34,0,0,1,.29.82,124.47,124.47,0,0,0,4.94,13C529.74,946.43,524.56,950,524.56,949.29Zm22.22,79.32c-1.32,7.93-7.06,4.84-14.44.84a17.42,17.42,0,0,0,1.61-4.59,42.77,42.77,0,0,1,2.07-7.07C540.35,1025,548.12,1020.53,546.78,1028.61Zm4.14-313.13c-3-1.91-7-2.36-4.14-8.92a7.31,7.31,0,0,0,.53-1.74C551,708.83,551.88,712.83,550.92,715.48Zm48.23,334.37c-1.55,6.35-14.3-3.09-19,.11a38.1,38.1,0,0,1-3.39,1.89c1.24-1.57,3.31-3,8.13-4.21a105.68,105.68,0,0,0,21.06-8.06l1.11.69S600.7,1043.49,599.15,1049.85ZM829.54,587.1c8.56-4,15.84-7.35,15.84-7.35s-2.7,11.35,2,19.57l-3.47,0-14.11,27-9.52.05Zm-65.06-6.32c4.78,4.73,8,17.41,15.94,12.6s15.6,9,25.41,4.6c2.37-1.06,5.88-2.66,9.84-4.49l-7,33S806,621.78,798.07,625s-6.45-17.42-15.92-9.42-8-11.06-17.52-11S759.69,576.05,764.48,580.78ZM743.74,983.91c4.11-8,.87-19,12-14.35,3.33,1.41,2.3,10.35-.76,22.22C747.82,988.7,740.72,989.77,743.74,983.91Zm-8,63.63c-12.16-3.1-22.63-7.69-14.54-15.88,9.46-9.59,7.73-19.09,19.71-12.82a11.71,11.71,0,0,0,5.12,1.3C742.51,1030.1,738.79,1039.83,735.75,1047.54Zm39.08,16.89a12.89,12.89,0,0,1-4.25-4.52c-4.82-7.91-8-9.47-14.32-4.68s1.69,15.86-6.32,4.8c-2.28-3.14-2.74-5.15-2.57-6.47.37-.74.73-1.5,1.12-2.27a1.1,1.1,0,0,0,.15-.32c13.35-27,34.67-67.83,42.07-68.92,0,0,0,4.74,8,7.88s6.37,3,11.15,7-23.68,20-15.72,23.15,4.85,17.42,4.85,17.42Zm59.24,1.44c9.58,11-17.41,6.45-17.41,6.45s-3.76,1.23-8.95,3.33c-.63-1-1.34-2.05-2.16-3.27-3.37-5-7.17-8.2-10.72-9.67,6.52-6.76,13.12-13.18,16.91-15.74,9.49-6.4,12.73,4.68,17.43-4.87s0,0,14.28-.09S824.49,1054.82,834.07,1065.87Zm31.62-279.44c-7.88,8-.75,6.34-10.69,3.23s-2-9.5-13.18-15.78-19.09-6.23-17.54-14.17-2.11-17.44-.32-19,17.73,14.17,24,6.21,23.77-4.93,17.37-11.22S855.83,731,851,723.05s-8.07-20.57-14.39-17.37-4.65-7.9-13.46-6.26-18.37-9.41-12.06-15.79-6.38-4.72,6.3-6.4S838,667.59,847.5,666c5.29-.92,7.19,5.09,9.48,10.56a7.1,7.1,0,0,0-1.46,3.68c-1.52,11.11-1.47,17.45.16,25.38s6.43,12.65,17.53,12.59c.33,0,.64,0,1,0C873.3,742.2,871.08,781,865.69,786.43Z"/><path class="cls-9" d="M375.75,677.39s-11.39,35.49-28.43,57.69c-2.32,3-1.58,6.81,2.62,5.24s8.18-2.84,5.92.42-16.4,13.75-13.78,16.36,13.3-4.19,11.37-1.57-17.66,12.1-14.51,13.68,14.8-2.63,13.43,0-20.25,16.24-19.74,19.91,10.29,5.24,12.07,5.76,3.59,2.84-2.82,6.94c-3.63,2.33-20.26,13.64-17.64,17.31s6.64,5.64,10.49,3.67c10.23-5.23,9.57-3.3,11.81-.54S333.15,844,325,852.37s-14.42,9.44-9.7,13.11,10,.52,11.54,2.63,1.05,5.23,5.76,4.18,5.25-1.15,7.35.22S326.78,891.7,313.72,897,299.08,907.43,303.27,909c0,0-5.25,7.34,1.57,8.38s11-1.57,13.64,0,0,4.73,5.78,3.15,7.33-6.29,11-3.66,4.72,7.66,7.34,4.1c0,0-7.34,14.77-19.4,19.49s-13.63,5.25-17.3,7.34-6.82,4.73-10.49,6.81-10.49,4.73-7.87,8.4,8.91,3.15,11.54,4.71.52,3.68,5.76,3.68,6.82,1.05,11.54,0,6.29,2.51,12.06.47,7.86-6.77,11-4.15-4.73,9.44-8.4,13.65-34.08,17.3-40.9,21-14.69,6.3-8.92,9.45,6.82,1.05,8.92,4.72,0,3.67,5.25,5.25,10-4.21,13.1,0,3.77,3.14,9.5,2.1a30.66,30.66,0,0,1,14.62.93c3.67,1.15,8.4-1.69,10,0s-45,20.59-57.08,25.31-18.88,6.82-15.21,9.44,6.29,0,9.43,3.67,3.68,5.76,7.87,5.76,5.77-2.61,8.92,0,7.87,5.78,11,4.73,10-1.7,11.54.2,2.09-.31,5.77,0,10-2.83,10-2.83a59.38,59.38,0,0,1-23.59,12.06c-13.64,3.15-47,13.11-46.05,18.88s3.57,4.2,7.24,6.3,3.15,5.25,8.39,5.77,5.24-4.72,10,0,9.52,7.33,13.15,7.33,16.74-6.28,16.74-6.28-8.39,7.87-4.71,9.43,5.76-3.15,10.48,0,6.82,4.72,10.49,4.2,7.87,3.87,11,.09,11.54-7.44,11.54-7.44-2.1,8.54,0,9,2.62-1,6.81,0,20.38-4.49,23-2.55,7.86,3,9.43.13,4.19,4.89,9.44,1.77,5.77-5.73,10-5.2,9.44,3.67,11,.52-4.19-14.16-4.19-14.16,8.91,8.91,13.1,8.39,3.67-2.09,7.87-2.63,8.92,3.15,12.06-.52,1-6.81,6.29-6.81,11.53,3.14,11.53-2.62-7.86-12.59-7.86-12.59,12.07,8.92,15.74,6.3,1-5.25,5.24-6.3,15.21,4.2,8.91-5.77-53-19.64-63.45-27.49c0,0,10,3.66,14.16,0s-2.09-8.17,1.05-8.7,5.77,9.45,10,7.34,2.1-7.34,4.2-8.38,3.67,10.49,8.92,7.86l5.24-2.62s14.68,2.1,11-6.29-53.49-24.65-61.35-36.71c0,0-.53,2.11,5.23.52s4.73-3.14,10.5-2.09,1,5.76,6.82,3.68,6.81-1.59,12.06,0,12.58,4.71,12.58-1.05-51.92-34.32-54-40.61c0,0,5.25,1,11.55,1.57s3.66,1.28,7.34,2.33a29.64,29.64,0,0,0,10.49,1.56c5.24,0,15.72,3.15,18.88-5.76s-17.84-4.72-28.85-11.53-22.55-11.55-24.64-14.17-9.45-6.81-7.88-8.38,10,4.19,15.21,5.23,7.87,6.3,11.54,4.72,4.2-4.72,8.92-2.61,11.54,10.48,18.88,6.29,12.58-6.82,3.14-10-59.26-24.64-62.93-29.36c0,0,2.1,2.09,8.39,1s7.35.53,12.59,1.58,8.92,6.81,11.54,3.67,3.67-5.25,6.81-2.63,12.59,8.06,15.21,5.88,6.29-4.82-1.05-9.54-32.51-20.46-36.71-25.18-10.49-6-12.58-11.24c0,0-.36-2.57,5.93-1s9.44,4.72,11.8,2.36-1.84-13.9.52-8.53,5.51,9.28,8.65,6.92,2.37-3.13,7.08-1.57,8.54,6.92,8.54,3c0,0,8.3-.49,4.14-8.51s-29.62-21.76-33.55-28.84-12.32-17.07-13.11-17.83c0,0,.79,1,7.87.26s-4.1,3.07,7.7,1.7c0,0-.78-.63.27-3.08s3.14,1.75,4.89,2.8,3.84,1.4,3.14-2.1,1.05-4.2,2.45-2.09,2.8,8.38,5.25,5.94-1.41-5.59,1.39-7,5.2,6.64,5.2.34-31.87-19.85-37.82-28.59c0,0,3.5,2.79,5.95,0s1.39-7.7,3.85-5.6,4.36,9.67,5.06,6.52-.34-7.69,3.15-5.59,6.64,8.74,7.35,5.59c0,0,.69-2.8,2.44-2.45s1.75,3.84,3.5,2.1-1.41-4.9,1-3.5,11.83,8.42,8,2.1c-6.65-11.1-28.15-18.75-32.69-22.25,0,0,3.5,2.1,6.29-.34s3.15-.7,5.95-.35,4.89,1,6.29-1.06,8.74,1.06,2.79-4.89-30.41-17.48-31.46-19.57-2.1-2.8,1-3.14,3.14,3.14,5.24,1-.7-3.49,2.1-2.1,4,6.19,5.41,3.4-.34-4.2,1.41-2.79,10.95,5.85,8.21,2.19c-17.57-23.38-28.55-38.26-38.78-60C382.83,667.45,377.49,672.33,375.75,677.39Z"/><path class="cls-9" d="M742.05,686.52S730.67,722,713.62,744.2c-2.32,3-1.57,6.82,2.62,5.25s8.18-2.84,5.93.42-16.41,13.74-13.79,16.35,13.31-4.19,11.38-1.56-17.67,12.1-14.52,13.67,14.81-2.62,13.43,0-20.25,16.24-19.73,19.91S709.23,803.49,711,804s3.6,2.84-2.81,7c-3.64,2.33-20.26,13.63-17.64,17.31s6.64,5.63,10.48,3.66c10.24-5.22,9.58-3.29,11.81-.54s-13.39,21.73-21.5,30.12-14.42,9.44-9.7,13.11,10,.52,11.53,2.62,1.06,5.24,5.77,4.2,5.25-1.16,7.34.21-13.2,19.18-26.26,24.43-14.64,10.49-10.44,12.06c0,0-5.25,7.34,1.56,8.39s11-1.57,13.64,0,0,4.72,5.78,3.15,7.33-6.29,11-3.67,4.72,7.67,7.34,4.09c0,0-7.34,14.79-19.4,19.5s-13.62,5.26-17.3,7.35-6.82,4.72-10.49,6.81-10.49,4.72-7.86,8.4,8.91,3.14,11.53,4.71.53,3.68,5.76,3.68,6.83,1.05,11.54,0,6.3,2.5,12.07.47,7.86-6.77,11-4.15-4.72,9.45-8.39,13.64-34.09,17.3-40.91,21-14.68,6.29-8.91,9.43,6.82,1.06,8.91,4.72,0,3.68,5.25,5.25,10-4.2,13.11,0,3.76,3.15,9.49,2.1a30.94,30.94,0,0,1,14.63.93c3.67,1.16,8.39-1.68,10,0s-45,20.61-57.08,25.32-18.88,6.81-15.2,9.44,6.29,0,9.43,3.66,3.67,5.77,7.87,5.77,5.77-2.62,8.91,0,7.87,5.77,11,4.72,10-1.68,11.53.21,2.1-.32,5.77,0,10-2.83,10-2.83a59.56,59.56,0,0,1-23.6,12.07c-13.63,3.13-47,13.11-46,18.87s3.57,4.19,7.24,6.29,3.15,5.25,8.39,5.78,5.24-4.73,10,0,9.51,7.33,13.15,7.33,16.73-6.29,16.73-6.29-8.38,7.86-4.71,9.44,5.77-3.15,10.48,0,6.82,4.72,10.49,4.2,7.87,3.87,11,.1,11.55-7.45,11.55-7.45-2.11,8.53,0,9,2.61-1,6.81,0,20.37-4.49,23-2.56,7.87,3,9.44.12,4.19,4.9,9.44,1.78,5.77-5.73,10-5.21,9.45,3.67,11,.52-4.19-14.16-4.19-14.16,8.92,8.91,13.11,8.4,3.67-2.1,7.86-2.63,8.92,3.14,12.07-.52,1-6.82,6.29-6.82,11.53,3.15,11.53-2.62-7.86-12.59-7.86-12.59,12.06,8.92,15.73,6.31,1-5.26,5.24-6.31,15.21,4.2,8.92-5.77-53-19.63-63.45-27.5c0,0,10,3.67,14.16,0s-2.1-8.15,1-8.67,5.77,9.43,10,7.33,2.11-7.33,4.21-8.39,3.66,10.49,8.91,7.87l5.24-2.62s14.68,2.1,11-6.29-53.49-24.65-61.34-36.71c0,0-.53,2.1,5.23.52s4.73-3.14,10.49-2.1,1,5.77,6.82,3.68,6.82-1.58,12.06,0,12.59,4.72,12.59-1-51.92-34.31-54-40.61a115.2,115.2,0,0,0,11.54,1.58c6.3.52,3.67,1.27,7.34,2.32a29.43,29.43,0,0,0,10.49,1.57c5.24,0,15.72,3.15,18.88-5.76s-17.83-4.72-28.84-11.54-22.55-11.54-24.65-14.16-9.45-6.83-7.88-8.38,10,4.18,15.22,5.23,7.87,6.29,11.55,4.72,4.19-4.72,8.9-2.62,11.54,10.49,18.88,6.29,12.59-6.82,3.15-10-59.27-24.65-62.93-29.37c0,0,2.1,2.1,8.39,1s7.34.52,12.59,1.57,8.91,6.82,11.53,3.67,3.68-5.24,6.82-2.62,12.58,8.06,15.21,5.87,6.29-4.82-1.06-9.54-32.5-20.45-36.7-25.17-10.49-6-12.59-11.24c0,0-.35-2.58,5.93-1s9.45,4.72,11.8,2.36-1.83-13.9.52-8.54,5.51,9.29,8.66,6.93,2.36-3.14,7.08-1.57,8.53,6.91,8.53,3c0,0,8.3-.49,4.15-8.5S789.92,857.34,786,850.25s-12.32-17.06-13.11-17.83c0,0,.79,1,7.87.26s-4.1,3.08,7.7,1.71c0,0-.78-.64.27-3.08s3.15,1.75,4.89,2.8,3.84,1.39,3.15-2.1,1-4.2,2.45-2.1,2.79,8.39,5.24,5.94-1.4-5.59,1.39-7,5.2,6.64,5.2.35-31.87-19.85-37.81-28.6c0,0,3.5,2.8,5.94,0s1.39-7.68,3.85-5.59,4.37,9.66,5.07,6.51-.34-7.68,3.15-5.59,6.64,8.74,7.34,5.59c0,0,.7-2.79,2.44-2.44s1.75,3.84,3.51,2.1-1.41-4.9,1-3.5,11.83,8.42,8,2.1C807,788.7,785.47,781,780.92,777.54c0,0,3.5,2.1,6.29-.35s3.15-.7,5.95-.34,4.89,1,6.29-1.06,8.75,1.06,2.8-4.89-30.42-17.49-31.46-19.58-2.1-2.8,1-3.14,3.15,3.14,5.25,1-.71-3.49,2.09-2.09,4,6.18,5.42,3.38-.35-4.2,1.4-2.79,11,5.85,8.21,2.2c-17.57-23.38-28.55-38.27-38.77-60C749.14,676.56,743.8,681.45,742.05,686.52Z"/><path class="cls-10" d="M928.93,624.52l0,0v0Z"/><path class="cls-11" d="M925.46,1136.13c-2.5-4.73.31-4.73-1.9-14.41s4.31-11.31,2.66-17.76,2.77-14.54-2.66-22.61,3.82-11.31,0-21a29.44,29.44,0,0,0-3.23-5.86c-17.38,3.39-49.17,9.79-73.39,15.73-35.12,8.6-56.74,23.86-83.61,25.93s-78,4.21-108.4,15-53.67,19.86-65.72,25a18,18,0,0,1-1.81.64c-23.72-8.3-48-16.06-68-21.33-14.25-3.76-32-9.08-51.71-14.94-.67-8.27-1.91-16.64-4.17-16.57-4.44.11-24.07,7.55-31.75,0s-11.94-24.18-15.36-22.69-24.74-4.89-36.68,0-12.39-1.89-12.39-1.89-28.57-13.42-49.89-13.55-20.48-3.55-23.89-4.41-28.29,6-33.76,0A41.46,41.46,0,0,1,252,1028.6s-32.58.85-46.23,0-17.08-5.88-26.45-12.75-14.22-8-22.47-5.29c-3.21,1.05-7.2,2.53-11.29,3.78,2.85,3.6,9.47,5.75,10.79,10.23,1.89,6.47-.29,9.69-2.73,11.58-2,1.6,1,6,2.27,10.26-1.32.2-2.58.43-3.79.68-2.74,6.84-5.17,15.91-7.34,21.34-3.23,8.07,9.68,9.69,11.59,16.15s-.29,9.69-2.73,11.58,2.44,7.8,2.73,12.63,6.17,9.69,0,14.54-.29,11.3,2.55,12.8,5.24,11.42,1.54,12.74.47,16.44,0,24.21,10.14,8.37,3.12,15.56,0,21.38,0,21.38h760s3.82-22.12,0-27.77.76-12.09,1.7-16.94-1.7-16.44-1.7-16.44S928,1140.86,925.46,1136.13Z"/><path class="cls-9" d="M572.4,1220.52s-98.46,1.89-103.59-.35,7.57-16.28,16.35-23.84,40.16-21,52.49-9.79l12.89,10.93S570.72,1205.2,572.4,1220.52Z"/><path class="cls-9" d="M202.7,1211.94s-10.06,5-29.17,3c0,0-7.05-1.54-11.58-1.25s-12.07,1.71-16.09,0,0-17.52,4.52-19.19,9.06,2.69,12.58,0,11.75-11.68,17.28-12.19,10.77,2.47,14.1,5.24C199.38,1191.73,204.71,1205.84,202.7,1211.94Z"/><path class="cls-9" d="M897.8,1216.75s-7.63,3.79-22.13,2.28a41.59,41.59,0,0,0-8.78-1c-3.43.23-9.16,1.32-12.22,0s0-13.27,3.44-14.54,6.88,2,9.54,0,8.92-8.87,13.12-9.24,8.17,1.85,10.69,4C895.28,1201.42,899.33,1212.13,897.8,1216.75Z"/><path class="cls-9" d="M589.21,1213s24.87,5.62,49.74,0c0,0-1.54-10.44-11.07-13.89s-7.28-3.74-10.65-6.13-13.45-5-17.94.51S589.21,1206.19,589.21,1213Z"/><path class="cls-12" d="M228.06,643.13c-10.57-1.27-38.27-29-38.27-29l1-8.79S180,590.69,182,586.78s4.89,1,5.06,2,6.67-3.91,11.55-6.25-4.88,6.25-1,13.11,5.86-4.91,12.68-7.84,9.79-3.9,12.72-5.27-1-12.31-6.84-11.34-12.7-4.88-12.7-4.88-7.81,1-16.43-4.88-7-6.84-7-6.84L174.17,536l-4.88,8.16s1-12.07-4.89-12.07-3.9,5.87-5.86,2.94-6.84-5.86-10.74-6.84-11.72,2-16.61,2.93-8.79-2-11.72,0,3.91,3.91,6.84,6.84-2,3.9-5.87,6.2-6.83,2.58-9.75,4.54-17.59-3.9-22.48-4.54,1,10.4,1,10.4-10.75-3.91-15.64,0,8.8,6.84,8.8,6.84a35,35,0,0,1-12.7,4.88c-6.83,1-4.88,2.93-6.83,7.82S54,577,49.14,578s-4.88,3.91-4.88,9.77S56,595.6,56,595.6H67.71S88.21,577,92.12,577s-9.76,12.7-7.81,18.58S98,588.74,98,588.74s11.72-7.82,16.61-10.75,7.81,4.5,7.81,4.5-11.71,6.25-7.81,8.2,4.88-2.93,12.69-3.91,8.8,1,13.68,2.93,23.44,11.72,27.35,16.61,24.42,36.14,28.32,41,26.38,19.54,29.31,24.43,1.95,50.79,1.95,55.67,1,60.56,1,60.56,0,89.86-1,105.49S223,958,221.06,981.4s-22.47,69.35-22.47,69.35h71.3s-3.91-34.19-4.88-44,0-86.93,0-86.93V776.27c0-19.53-2-42-4.88-55.67s-3.91-74.24-4.89-77.47.18-52.75.18-52.75c.65-4.55,29.3-35.16,29.3-37.11s-1.31-5.21-4.56-4.88-17.58,15.3-18.89,13.34,2-15,1.31-17.58-2.07-45.66-4.68-47.61c6.25-8.44,13.28-17.9,16.33-19.8,5.21-3.25,7.81-7.16,13.67-9.76s5.21,6.51,2,7.16-3.91,5.86-6.51,10.42-6.51,3.26-11.07,5.86-4.56,3.91-2,9.77,12.38.65,16.94,0,9.12,3.9,14.33,5.21,2.61-3.91,5.86-5.21,4.56,1.95,10.41,1.3-1.3-3.26,2.61-4.56,13.67,3.91,19.53,5.21,10.88-1.95,10.88-6.51-3.72-3.91-3.72-7.81-4.55-5.21-8.46-5.87,0-7.16,4.57-8.46,2.6-5.21,1.94-9.77-5.21,1.3-7.16.65-2.61-3.25-6.51-4.55-6.51,4.55-10.41,3.25-5.22,0-5.22-5.86-13-1.95-15-3.26,9.76-7.16,11.07-11.07-3.26-.65-5.21-1.95,2.59-5.86,4.55-9.12-5.21,0-7.15,0,3.25-5.2,5.19-8.46-7.15-.65-10.41,2,3.26-2.61,5.86-8.47c1.11-2.49-.38-4.16-2.7-5.25,5.09-5.68,10-11.57,11.17-12.34,1.95-1.3,5.2-10.42,10.42-8.46s8.46-3.91,9.12-.66,1.29,6.52,3.25,9.12-6.51,11.07-8.47,12.37-3.9,7.82-.65,9.12,9.12,4.57,15.63,4.57,11.73-2,16.93-3.92,0-8.46,1.31-10.42,20.83-1.3,25.39,0,11.07,2,13.67-4.55c.8-2-.29-3.3-2.08-4.16,5.57,1.38,18,5.3,20.32,4.16,2.61-1.29,3.91-2,9.76-4.56s1.31-9.12,3.92-7.82-2,4.56,1.3,12.38,16.28-3.91,23.44-2.61,4.56-3.26,5.21-6.51-.65-3.26-3.9-4.56-7.17-1.31-7.82-5.2,0,0-1.95-2.61-7.17-.65-7.17-.65,5.86-2.61,4.56-7.71-7.81,2.49-9.12-.76,0,0-3.25-4.9-11.72,5.66-11.72,5.66,2-6-3.26-8.57-7.81,3.25-13,5.86-13.68,1.3-11.72-2.95c.49-1.08.19-1.68-.49-1.94a40.38,40.38,0,0,0,7.65-6.84c3.25-3.9-3.26-5.86-7.16-5.2s-5.87,0-5.87-3.91-4.55,2-9.11,0-5.86,7.81-7.82,9.11-7.81,3.26-8.46,1.31,4.56-9.12,5.21-11.08,3.25-7.16,10.41-3.9,15.64-3.9,16.29-2,5.2,2,7.82.66,8.46,3.25,9.11,5.2,7.16,5.21,10.42,5.87a2.54,2.54,0,0,0,3.25-2.6s5.21,5.2,9.12,4.55,0-7.16,2.6-5.86,12.38,3.91,16.94,4.56,11.06-3.25,14.32-5.86-4.55-3.91-5.86-5.86-6.51-2.6-4.56-3.91a5.73,5.73,0,0,0,1.3-7.82c-1.95-3.25-10.41,1.31-10.41,1.31s1.3-4.56-1.31-7.81-10.42,0-10.42,0,2.6-4.56.66-6.52S427.9,325,427.9,325l1.31-5.21c-1.31-3.91-15.63-3.26-15.63-3.26,3.25-9.77,8.47-11.07,9.77-8.47s3.26.65,7.82,2.6,15.62,0,18.88,3.92,15,2.6,20.19-1.31-4.56-4.56-5.87-8.46-9.76-2-9.76-2,3.26-7.16,0-11.07-11.07-1.95-11.07-5.2-4.57-7.17-5.86-10.42-5.21-2.61-9.78-4.57-7.81,2.61-15,1.31-6.44,5.86-10.35,7.81-6.51-.65-11.07-.65-6.51,8.47-4.56,12.37,4.56-1.3,8.47,6.52,17.51-1.3,17.51-1.3-5.79,9.11-7.1,13-12.36.66-12.36.66a30.09,30.09,0,0,0-9.12-3.26,6.38,6.38,0,0,0-6.52,3.26,17.77,17.77,0,0,0-10.41-3.91c-5.86,0-3.91,10.42-3.91,10.42-3.91-2.6-6.51,2-9.77,5.21s-5.86,2.61-10.41,3.26-6.52,2.61-10.42,4.55,3.9,5.22,5.2,9.12,4.56-.65,7.82-.65,5-3.25,8.47,1.3,10.41.65,10.41.65-17.59,31.91-22.14,35.28-8.47-5.66-8.47-5.66a14.55,14.55,0,0,0,8.47-4.21c3.91-3.91-1.3-7.82-3.26-10.43s-5.21,2.61-8.47,2.61-7.15-1.95-9.75-6.52-7.18,3.91-9.12,0,0,0,2.6-2.6-3.91-5.86-4.56-8.47-3.91-3.25-2-4.55,5.86-1.31,8.47-3.26-1.95-3.26-3.25-7.16-4.56-1.3-9.77-.65,0-5.86,0-5.86c3.26-1.31,12.37-7.17,10.41-13.68s-7.15,0-11.07-2.61-6.5,0-11.06-.65-3.91,4.56-4.56,7.17-.65,3.91-3.26,5.21-2.6-7.82-1.95-10.42,6.51-7.16,9.12-11.07,7.16-7.81,12.37-2.61,9.77,5.87,12.37,3.26,5.86,0,10.42,1.3,7.17-4.56,9.11-7.16,5.22,2.6,6.52,7.81,2.6-4.56,5.86-7.81,8.47.65,9.77,7.81,9.12,1.31,14.32.66,7.82-7.17,9.77-11.72,7.82-8.47,6.51-14.34-4.55,0-11.07,4.56-16.27,1.31-18.23-1.3-8-.65-11.07-3.91-.66-5.2,3.25-9.11,7.16-2.61,9.78.65,1.3,6.51,7.81,8.46,6.51-2.6,6.51-7.81.65-4.55,1.3-9.77-7.16-.65-10.42-1.95-7.16-7.81-4.55-11.08,7.81,0,15.62,2.61,5.22-3.9,8.47-6.51,12.37-2.6,22.68-.65.11-3.91,0-7.17-11.61-.64-17.47-3.25,1.95-3.26,12.38-2.6,1.95-3.26,0-8.47-4.57-2.6-9.12-3.26-16.94,0-15.63-2.6,7.81-2.61,9.11-8.81-12.37-8.12-18.23-11.72,0,0,4.56-5.52-3.26-5.21-6.51-6.51-14.33.65-16.48-2.61,6.06-5.2,4.1-10.41-5.86-7.16-13-7.16-7.18,3.9-10.44,1.29,11.07-7.81,10.42-13-13-8.47-19.54-10.42-7.16,7.16-13.67,3.25,0,0-3.91.66-.64,9.11-3.25,13.68-5.86,1.95-11.07,1.29-10.42,0-15.63,0-4.57.66-4.57-2.6,5.22-1.95,10.43-2.6,5.2-5.21,10.42-3.91,5.85-2.61,5.21-7.82-7.82-3.9-10.18-7.16.41-7.81-2.85-11.72-9.11,0-13,0-7.16,2.61-11.06,4.56-1.31,4.55-2,8.46-4.55,2.61-9.77,3.91-9.11,5.21-7.15,8.47,2.6,10.41-.66,12.37-4.56-2.61-7.16-4.56-6.51,2.6-11.07,3.91-5.22,1.3-6.51,3.91,3.25,7.15,5.2,11.07-4.56,5.31-4.56,5.31c-5.2-3.14-8.46-.1-16.27,0s-5.21,3.8-11.73,3.15-8.46,5.21-10.42,7.17.66,5.86,1.31,9.47,4.55,8.11,1.3,7.45-6.51,2-9.77,2.88-6.51,4.94-13,6.89-8.41,6.52-8.41,10.62-11.78,4.36-18.29,6.32-4.56,9.11-2.61,14.32,7.81-9.12,11.08-2.6,14.32-.65,20.18,1.3,13,0,9.77,3.91-9.11,1.95-14.33,4.55-1.3,4.56,2.61,8.47,7.82-1.3,14.33-2,11.71-.65,14.32,4.55,7.17,3.26,13,1.31,5.21,1.95,9.76,7.16c3.28,3.75,7.91-2.61,10.25-6.48,0,2.21,1.07,6.25,5.38,13.64,2.66,4.55,4.87,4.8,6.75,3,1.36,4.32,3,9.51,3.68,11.94,1.29,4.56-.66,3.91-5.87,8.47s.65,5.86,0,9.76-5.21,6.52-9.12,8.47-11.07,2.61-9.11,0,4.56-8.47,4.56-11.72-5.21-2.61-5.87-5.86,0-4.56-3.25-7.17-7.81-2.6-13.68-1.95-4.56,6.52-8.47,4.56,0-10.42-5.2-13-7.81,2.6-11.72,4.56-1.95,5.2-2.61,8.46-4.55,5.86-5.86,2.61-9.71-7.17-15.62-5.22-2.61,11.07-2.61,11.07c-5.21,0-5.21,2-11.72,3.91s-5.21,7.17-12.38,4.75-5.85,5.67-11.72,9.58-3.91,3.91-1.31,14.09,5.22,4.79,3.92,8.71-8.47,2.6-14.33,2.6-5.86-4.56-15-8.47-14.33,7.17-24.09,7.17-11.73,5.2-12.38,7.16-16.93,8.46-22.79,9.11S1.38,371.25.07,379.06s15.63-4.55,9.77,3.26-6.51,9.11-5.21,14.33,11.07-3.26,9.11,3.9,13,0,18.24,3.26,9.11-8.46,11.72-5.21,16.93-9.12,16.93-9.12a98.22,98.22,0,0,0-5.21,11.07c-2,5.22,8.46.65,13.68.65s9.11-7.81,12.37-6.5,18.88-12.38,20.84-12.38-6.52,7.16-8.47,11.72-2,7.16,1.31,5.86,7.16-.65,15.62-.65,0,0,5.21,3.91,4.56-4.56,10.42-5.86,11.07,2.6,18.89,0-2-6.51-4.56-9.12,0-5.86,7.87-2.6,13.62-3.26,13.62-3.26,26.7,9.11,29.95,11.07-5.2,3.91-8.47,3.26-3.9,2.6-4.55,5.78-9.12.73-14.32.08-7.17,2.6-9.13,7.81,3.26,7.82-1.94,9.12-8.47-.65-16.94,0-18.88.65-26,3.91-3.9,4.55-.64,9.11,5.2-1.95,4.55,0-2,3.91-1.31,6.76,5.87,1.71,12.38.41,9.12.65,11.07,3.9,20.84,9.77,20.84,9.77-20.19-2.6-28.12-5.42-10.3.21-14.86,0-2.6,2.15-5.21,3.46-7.16,0-11.72-2.61-5.21,1.3-7.16,4.56-2.61,6.52-10.42,7.82-20.84,7.81-26.05,13-5.86,7.16-.65,11.07,0,0-4.56,2.61-5.86,8.46-10.42,14.32.65,6.51,5.21,9.12,22.14-9.12,22.14-9.12-4.56,5.21-5.21,14.33,24.1-5.21,27.35-7.82,3.26.66,3.91,3.26,14.81-9.77,14.81-9.77,1.47,4.56.17,8,5.21,6.94,8.46,4.34,11.72-3.26,12.37,0,9.12,5.85,15.63,3.25,9.12-7.16,16.29-3.25,33.21-6.52,38.85-3.91,15.84,13,17.14,15.63-3.24,2.6-7.81,3.91-5.85,3.25-9.33,3.91-14.11,3.9-12.81,8.46,8.47,6.51,12.81,5.86,7.38-2,10.63,3.9,12.38,0,12.38,0,14.4,29.64,12.44,40.71c-.13.75-.26,1.62-.38,2.61C233.15,598.2,238.64,644.41,228.06,643.13Zm-25.5-182.19A9.55,9.55,0,0,1,198,465c-5.87,2.61-3.26,7.17-3.26,7.17s-7.17-8.47-12.06-7.58c-2.64.47-5.93-2.66-9-5.34.13,1.9-5.13-8.18-7.91-6s-1.46,7.17.58,11.47c.43,3.15.42,6.32-2.2,8.07-5.86,3.9-7.16,7.81-13.68,10.41s-10.41,2.61-15,0,2-7.81,9.78-11.06,15-3.26,19.54-6.51a8.41,8.41,0,0,1,1.54-.91c-.53-3.91-1.75-7.78.41-8.86,1.8-.91,4.28,1.06,6.92,3.36a2.64,2.64,0,0,1,.24-1.18c1.3-3,2.6-6.74,4.56-5.44s8.54,2,8.54,2a13.19,13.19,0,0,1,7.16-5.87c3.84-1.42,6.11,6.26,8.36,12.2,1.26-2.06,1.93-4,4.59-4.38l.72-.09c-2.31-4.6-5.28-9.68-5.28-9.68a17.73,17.73,0,0,1,7.7.65c3.78,1.3,12.49-4.56,17.7-3.26s3.91,5.86,0,12-4.56.42-7.16.23a20.9,20.9,0,0,0-7.17.19c-3.07.61-2.09-.51-5.79-.09C209.69,460.1,206.5,450.86,202.56,460.94Zm28.68,40.55c0,3.91-2,17.59-5.2,21.49s-18.89-21.49-18.89-21.49.65-3.26,3.26-2.6,2-9.12,6.51-7.17,3.91-9.11,6.51-2.6,3.91-2.6,7.81,0S231.24,497.58,231.24,501.49Zm42.53-233.26a92.78,92.78,0,0,0,10.88,7.29c3.9,2,0,8.47-6.52,13s-17.58,16.28-15.74,13.67,1.42-14.32,4.67-20.18C269.08,278.39,272.36,272.49,273.77,268.23Zm2.92,104.15c-2.62,6.8-6.69,16-10.28,18.41-5.86,3.91-2-6.51-.65-9.12s4.55-11.73,8.47-10.76A5.59,5.59,0,0,1,276.69,372.38ZM257.46,258.5c3.13-1.74,5.47-2.77,5.69-1.21.27,1.86,3.25,4.91,7,8-4.56,4.92-11.17,16.4-12.16,17.39C257.29,283.35,257.29,270.9,257.46,258.5Zm-17.09,4.65c.79,1.76,2.54,2,4.72,1.49.81,16.77,2.17,34.07,1.13,33-1.7-1.7-9-22.13-10.89-27.41C237.38,265,238.94,260,240.37,263.15Zm16.92,213.59c-1.82,2.09-4.57,5.73-7.36,9.77-2.71-3.78-5-7.16-5-7.16s2.6-5.21,5.21-7.81.65-6.52,5.21-9.12c1.65-.94,4.92-4.28,8.42-8.15C262.26,462,260.38,473.23,257.29,476.74Zm20.84-15c-1.3,3.91-5.21,3.91-7.82,3.91-2.1,0,.05-14.46.95-20,3.2-3.79,5.57-6.71,5.57-6.71s1.3,7.17,1.95,11.07A23.76,23.76,0,0,1,278.13,461.77Zm28.66-90.86c-3.26,2.91-.66,4.9-1.31,8.8s-3.25,2-5.86,4.57,3.25,8.46,2,12.37c-1.15,3.43-12.32,8.36-15,9.52a18.58,18.58,0,0,1-2.55-4.31c-1.95-4.57-3.9,5.86-9.76,4.56s-6.52,21.48-10.42,21.48,1.3-7.16-1.3-9.76-11.07,8.47-9.13,2.6,10.43-15.63,16.29-19.54c3.46-2.31,8.76-14.67,12.51-24.37a4.79,4.79,0,0,0,2.47-.26c5.2-1.85-.66-3.37,8.46-5.66s8.47-12,12.37-12S310,368,306.79,370.91Z"/><path class="cls-12" d="M248.37,668.75s74.23-67.4,84-71.3h11.72s-65.48,69.26-90.83,99.62C253.25,697.07,245.43,682.42,248.37,668.75Z"/><path class="cls-12" d="M299.45,581.83S286.25,586.78,289,589s5.13-.55,5.05,2.2-7.44,4-5.42,6.41,4.6-3.48,5.23,0-10.16,7.89-5.59,8.45,9-3.31,11.19-3.86,2,2.24,2.2,3.91a6.47,6.47,0,0,0,9.35,4.35c6.05-2.76,7.38-4,7.27.76s-1.77,8,3.73,5.83,7.7,2.2,11.56,3.85,6.59,2.21,8.25,0,4.94-.4,7.7,1.46,7.15,4.2,6.59,0,1.66-4.2,5-7,2.75-6.6,0-8.8-5.5-.61-7.15-3.33,4.95-3.66,3.3-5.67-6.6-3.11-5.5-5.86,6.05-8.25,8.8-6.6,8.8,7.15,10.45,2.2-2.74-8.68-2.74-8.68,7.15,7,9.35,4.28,0-3.06,3.3-4.28,2.74,2.08,5.5,2.63,7.15-5.26,8.8-2.63-4.95,5.93-4.4,9.78,2.18,0,4.66,1.65,2.47,4.57,0,7.51.29,6.72,5.79,3.73,11-7.77,11-3.73-9.35,10.64-4.4,10.09,11.56-4.95,11.56-3.3-3.31,9.91,0,7.16,7.15-9.91,8.8-7.16,2.2,8.26,5.5,4.41.54-9.43,6.05-7.47S454.58,611,454,606s-6-8.24-4.95-11,8.25,7.88,10.45,2.56,1.1-9.16,3.31-9.71,2.74,2.75,6,2.75,3.86-3.85,4.95-6,2.21.55,5.51-1.1,4.39-.31,3.3-4.83,8.8-6.18,4.4-8.92,1.1-7.71-5.5-6.06-5.5,6.61-8.25,3.85-.55-3.95-5-4.17-8.25-2.53-11.55,0-4.95,4.72-6,1.42-4.4-5.75-7.15-2.6,4.95-9.5,6.6-10,1.65-3.3,4.95,0,4.4-1,7.71-1.59,6.6-6.11,8.79-3.36,3.31,9.36,5.51,6.05,2.2-2.2,5.5-3.85,2.27,1.22,5.53-3,4.37,4.18,8.21,0,6.61-11.34,0-11.89-8.79,3.3-10.44,0-3.85-6.6-7.7-7.71-11.56,6.06-12.66,2.76,9.36-12.66,2.21-12.11-9.35,1.1-12.11,2.76,4.95-9.91-.55-8.26-9.9,11.56-12.1,9.35,1.1-13.52-3.3-9.51-12.1,12.26-13.2,9-1.66-8.26-5-3.86-6,9.36-4.95,12.11-.55,3.3-2.74,2.75,0,2.2-2.76,2.75-2.75-2.75-3.84-4.41,0-9.34-3.31-7.7,11-4.95,4.95-8.25-3.85-8.63-9.35-3.21-5.5,7.06-10.45,4.87,2.75-9.43-6.6-7.19-13.21,1.68-12.65,6.63,3.3,8.81-1.11,7.71,1.65-10.45-8.25-7.15-4.41,14.3-3.85,17,7.7,1.65,6.6,5.5-3.3,3.3-8.8,5-5.5,8.8-3.3,10.45,4.4,12.11-.55,10.45,2.2-7.69-4.41-8.25-11.55,4.95-12.1,0,3.28-14.3-3-8.8.84,13.75-4.12,11.55-7.15-11-9.35-6.6,3.85,9.9-.55,8.8-7.15-5.5-10.45-3.29-1.65,4.94-4.41,6-4.95-6.6-8.79-2.2-11.44,3.3-6.27,8.81-3.16.54-1.75,5.5S299.45,581.83,299.45,581.83Z"/><path class="cls-12" d="M833.84,695.56c-.11-.87-.23-1.67-.35-2.34-1.74-9.93,11.19-36.56,11.19-36.56s8.19,5.26,11.11,0,5.66-4.1,9.56-3.52,10.34-1.17,11.5-5.26-8.38-7-11.5-7.61-4.29-2.34-8.38-3.51-8.19-1.17-7-3.51,10.34-11.7,15.41-14,28.47,7,34.91,3.52,8.77.57,14.62,2.91,13.46,0,14-2.91,8.2-2.35,11.12,0,8.78-.77,7.61-3.9.15-7.22.15-7.22,12.72,11.12,13.3,8.77.59-5.26,3.52-2.93,25.16,15.22,24.57,7a23.25,23.25,0,0,0-4.68-12.87s15.79,10.52,19.89,8.18,8.77-2.92,4.68-8.18-5.26-10.54-9.36-12.88-8.78,1.17-4.09-2.34,4.09-5.26-.6-9.94-16.38-10.53-23.4-11.7-7.6-4.1-9.35-7-2.34-6.43-6.44-4.09-8.19,3.51-10.53,2.34-.58-3.28-4.68-3.1-6.22-2.55-13.35,0S902,567.72,902,567.72s17-5.84,18.73-8.77,4.09-4.68,10-3.51,10.52,2.19,11.1-.37-.58-4.31-1.16-6.07,1.16,4.1,4.1,0,5.84-5.26-.6-8.19-15.79-2.92-23.39-3.51-10.54,1.17-15.22,0,0-3.51-1.75-8.19-3.51-7.61-8.19-7-12.29,2.78-12.88-.07-1.16-5.78-4.09-5.19-10.53-1.18-7.6-2.93S897.92,504,897.92,504s5.15,5.86,12.23,2.93,9.42,0,7.07,2.34-11.11,5.85-4.09,8.19,11.7-1.17,17,0,4.68,8.78,9.35,5.27-2.92-3.51,4.68-3.51,11.13-.59,14,.58,2.92-1.17,1.17-5.27S950,504,951.74,504s15.8,12.29,18.73,11.12,6.43,5.85,11.11,5.85,14,4.1,12.29-.58a86.47,86.47,0,0,0-4.68-10s12.87,11.11,15.21,8.19,5.85,7.61,10.54,4.68,18.13,3.51,16.37-2.92,7,1.16,8.19-3.51.59-5.85-4.68-12.88,10,4.1,8.77-2.92-11.11-14.63-16.37-15.21-19.9-6.44-20.48-8.19-2.34-6.44-11.11-6.44-13.47-9.94-21.65-6.44-8.19,7.61-13.46,7.61-11.7,1.17-12.87-2.34,1.17,1.34,3.51-7.81,4.1-9.16-1.17-12.67-4.1-10.79-10.54-8.61-5.26-2.5-11.11-4.26-5.85-3.51-10.53-3.51c0,0,3-8.19-2.34-9.94s-12.87,1.75-14,4.67-4.69.59-5.27-2.33,1.17-5.86-2.34-7.61-5.85-6.43-10.53-4.1-1.17,9.95-4.68,11.71-2.33-3.52-7.6-4.1-9.37-.58-12.3,1.76-2.33,3.51-2.92,6.43-5.26,2.35-5.26,5.27,2.34,8.19,4.1,10.53-4.69,1.75-8.2,0-7.6-4.1-8.19-7.61,4.68-4.68,0-8.77-6.44-3.51-5.27-7.61c.63-2.18,2.08-6.85,3.31-10.74,1.68,1.59,3.67,1.37,6.06-2.72,3.87-6.64,4.87-10.27,4.83-12.25,2.11,3.47,6.27,9.18,9.21,5.82,4.1-4.68,3.5-8.19,8.78-6.44s9.35,3.51,11.69-1.16,7-4.68,12.88-4.1,9.36,5.26,12.87,1.75,7-5.26,2.34-7.6-10-.59-12.87-4.1,3.51-1.75,8.77-3.51,15.21,4.68,18.14-1.17,8.19,7,9.94,2.34,3.52-11.11-2.33-12.87-16.44-2-16.44-5.67-1.7-7.79-7.55-9.54-8.78-5.37-11.7-6.2-5.86-3.16-8.78-2.58.58-3.45,1.17-6.69,2.93-6.76,1.17-8.52-3.51-7-9.36-6.44-3.51-2.71-10.53-2.82-9.94-2.82-14.63,0c0,0-5.85-1.27-4.09-4.78s5.85-7.61,4.68-9.94-1.75-2.35-5.85-3.52-7.61-5.26-9.95-3.51-3.51,5.85-6.44,4.1-2.34-8.19-.57-11.12-1.77-6.44-6.44-7.6-8.2,0-8.78-3.52,1.76-5.85-1.76-7.6-6.43-4.1-10-4.1-8.76-3.51-11.69,0-.46,7.61-2.57,10.54S778,277,777.4,281.63s0,8.19,4.68,7,4.67,2.92,9.36,3.51,9.35-.59,9.35,2.34.59,2.34-4.09,2.34-9.36-.58-14.05,0-7.59,2.93-9.93-1.16.58-11.71-2.93-12.29,2.34-4.1-3.51-.59-6.44-4.68-12.28-2.92-17,4.68-17.56,9.35,12.28,9.37,9.36,11.71-3-1.17-9.38-1.17-9.92,1.76-11.68,6.43,5.61,6.44,3.68,9.36-11.87,1.18-14.79,2.34-10,.9-5.86,5.85,9.36,1.73,4.1,5-17.55,4.95-16.38,10.52,7,5.58,8.19,7.92-9.95,1.75-14,2.34-6.43-1.76-8.19,2.92-9.35,8.19,0,7.61,16.39,0,11.12,2.34-15.59,0-15.69,2.92-9.27,8.19,0,6.44,17.45-1.75,20.37.59.59,8.18,7.61,5.85,11.7-5.27,14-2.35-1.16,8.78-4.09,9.95-9.94-2.92-9.35,1.76,1.16,4.09,1.16,8.77,0,8.78,5.85,7,4.68-4.69,7-7.61,5.26-4.1,8.77-.59,5.68,5.27,2.93,8.2-8.19,1.17-9.95,3.51S710.7,412.1,704.85,408s-8.78-9.36-10-4.09,4.1,8.77,5.85,12.87,4.1,10,8.78,10.53,11.7,5.85,12.87-.58,5.85-10,8.78-7,4.1,11.71,5.26,7,4.1-9.37,5.85-7,4.09,7.61,8.19,6.44,7-3.51,9.36-1.17,6.44,1.76,11.12-2.93,8.78-1.16,11.12,2.35,7.61,7.61,8.19,9.94.58,10.53-1.76,9.36-2.34-2.34-2.92-4.68,0-7-4.1-6.43-6.43-1.76-10,.58-8.19-3.51-9.94,2.34S768,446.62,771,447.79c0,0,4.68,5.85,0,5.26s-7.61-2.92-8.77.59-5.27,4.68-2.93,6.43,5.85,1.76,7.61,2.93-1.18,1.75-1.76,4.09-6.44,5.27-4.1,7.61,4.1-1.17,2.34,2.34-5.85-4.09-8.19,0-5.85,5.85-8.78,5.85-5.84-4.68-7.6-2.34-6.43,5.85-2.93,9.36a13.08,13.08,0,0,0,7.61,3.79s-3.51,8.11-7.61,5.09S716,467.09,716,467.09s6.26,3.52,9.36-.58,4.67-1.17,7.6-1.17,5.85,4.1,7,.58,8.19-6.43,4.68-8.19-5.26-3.51-9.35-4.09-6.44,0-9.37-2.93-5.26-7-8.78-4.67c0,0,1.75-9.37-3.5-9.37a16,16,0,0,0-9.37,3.52,5.71,5.71,0,0,0-5.85-2.93,26.83,26.83,0,0,0-8.19,2.93s-9.94,2.92-11.11-.59-6.39-11.71-6.39-11.71,12.23,8.2,15.75,1.18,5.85-2.34,7.6-5.85,0-11.12-4.1-11.12-6.43,2.34-9.94.58-2.81-8.18-9.31-7-9.41-2.92-13.51-1.16-7.6,1.16-8.77,4.09-5.27,6.44-5.27,9.36-7,1.17-9.95,4.68,0,9.95,0,9.95-7.6-1.76-8.77,1.75-10,4.1-5.26,7.61,15.21,4.68,18.13,1.17,12.87-1.76,17-3.51,5.85,0,7-2.34,5.85-1.17,8.78,7.6c0,0-12.88-.59-14.05,2.93l1.17,4.68s-6.43-4.09-8.18-2.34.58,5.85.58,5.85-7-2.93-9.36,0-1.17,7-1.17,7-7.61-4.1-9.37-1.17a5.18,5.18,0,0,0,1.17,7c1.76,1.17-2.91,1.76-4.09,3.51s-8.19,2.93-5.26,5.27,8.77,5.85,12.87,5.26,12.87-2.92,15.21-4.1-1.17,4.69,2.33,5.27,8.2-4.09,8.2-4.09a2.29,2.29,0,0,0,2.92,2.34c2.93-.59,8.78-3.52,9.36-5.27s5.86-5.85,8.2-4.68,6.44,1.17,7-.59,8.2,4.69,14.63,1.76,8.78,1.76,9.37,3.51,5.25,8.19,4.68,9.95-5.86,0-7.61-1.17-2.93-9.95-7-8.19-8.19-3.51-8.19,0-1.76,4.09-5.27,3.5-9.36,1.18-6.44,4.69a36,36,0,0,0,6.88,6.14c-.61.24-.89.77-.44,1.74,1.75,3.82-5.85,5-10.53,2.65s-7-7.6-11.7-5.27-2.93,7.71-2.93,7.71-7.6-9.5-10.53-5.09-1.75,1.48-2.92,4.4-7-3.9-8.19.69,4.09,6.92,4.09,6.92-4.68-1.76-6.43.59-1.17-1.17-1.76,2.34-4.1,3.5-7,4.68-4.1,1.16-3.51,4.09-1.76,7,4.68,5.85,18.14,9.38,21.06,2.35-1.16-10,1.17-11.13-1.76,4.69,3.51,7,6.44,3,8.78,4.11c2.06,1,13.25-2.5,18.26-3.75-1.61.78-2.59,2-1.88,3.75,2.35,5.84,8.19,5.26,12.28,4.08s21.66-1.75,22.83,0-3.51,7.61,1.17,9.37,9.35,3.51,15.2,3.51,11.12-2.93,14-4.1,1.17-7-.59-8.19-9.36-8.78-7.61-11.11,2.34-5.27,2.93-8.19,3.51,2.34,8.19.58,7.61,6.43,9.37,7.61c1,.68,5.46,6,10,11.08-2.08,1-3.42,2.48-2.42,4.71,2.34,5.27,8.19,9.95,5.27,7.61s-11.12-4.68-9.37-1.76,6.44,7.61,4.68,7.61-8.18-2.92-6.43,0,5.85,7,4.09,8.19-5.84-1.76-4.68,1.75,11.71,8.78,9.95,9.95-13.46-2.34-13.46,2.93-1.17,4.09-4.68,5.26-5.85-4.1-9.36-2.92-4.1,3.51-5.85,4.09-5.85-4.68-6.44-.58-2.33,7.6,1.77,8.77,7.6,7,4.09,7.61-7.61,1.75-7.61,5.26-3.34,2.93-3.34,7,4.51,7,9.77,5.86,14-5.86,17.55-4.68-2.92,3.51,2.35,4.09,6.44-2.34,9.36-1.17.58,5.85,5.27,4.68,8.77-5.27,12.87-4.68,12.86,5.27,15.2,0,2.34-6.44-1.75-8.78-7.6-1.17-9.94-5.26-2.93-8.77-5.85-9.36-3.51-8.78,1.75-6.44,7.6,5.85,12.29,8.78C800,590.5,806.35,599,812,606.57c-2.34,1.76-3.61,40.43-4.19,42.78s2.34,14,1.17,15.8-14-11.7-17-12-4.1,2.62-4.1,4.38,25.74,29.25,26.33,33.35c0,0,1,44.49.16,47.39s-1.76,57.31-4.4,69.59-4.38,32.47-4.38,50v129s.87,69.32,0,78.11-4.38,39.49-4.38,39.49h64s-18.43-41.25-20.18-62.31-5.27-64.94-6.14-79-.88-94.77-.88-94.77.88-50,.88-54.41-.88-45.64,1.75-50,22.82-17.56,26.32-22,22-32.46,25.45-36.85S912.63,692,917,690.28s5.27-3.51,12.29-2.63,7.9,5.26,11.41,3.5-7-7.35-7-7.35,2.64-6.68,7-4,14.92,9.65,14.92,9.65,10.53,11.45,12.29,6.16-10.54-16.68-7-16.68,22,16.68,22,16.68h10.52s10.54-1.77,10.54-7,0-7.89-4.4-8.77-10.53.88-12.28-3.52,0-6.14-6.14-7a31.28,31.28,0,0,1-11.41-4.38s12.28-2.65,7.9-6.15-14,0-14,0,5.26-9.91.87-9.34-17.54,5.83-20.18,4.08-5.27-2-8.77-4.08-7.9-3-5.27-5.58,8.77-4.38,6.15-6.14-6.15.87-10.54,0-11.41-3.51-14.91-2.63-7.91,3.5-9.66,6.14,0-2.64-5.26-2.64-4.4,10.85-4.4,10.85L887.18,642l-5.26,16.67s1.45.88-6.3,6.15-14.77,4.38-14.77,4.38-6.14,5.26-11.4,4.39-8.78,9-6.15,10.19,5.31,2.09,11.43,4.72,7.88,13.2,11.38,7-5.26-13.86-.87-11.76,10.23,6.48,10.38,5.6,2.78-5.26,4.54-1.75-7.89,16.67-7.89,16.67l.87,7.9s-24.88,24.92-34.37,26.06S834.19,697.9,833.84,695.56Zm23.07-125c-3.33-.37-2.46.63-5.21.08a18.88,18.88,0,0,0-6.44-.17c-2.34.17-2.92,5.29-6.43-.2s-4.68-9.58,0-10.74,12.5,4.09,15.9,2.92a15.82,15.82,0,0,1,6.91-.58s-2.67,4.56-4.73,8.69l.63.08c2.4.34,3,2.08,4.13,3.94,2-5.34,4.07-12.23,7.52-11a11.86,11.86,0,0,1,6.43,5.26s5.92-.58,7.67-1.75,2.93,2.17,4.09,4.88a2.26,2.26,0,0,1,.22,1.06c2.37-2.06,4.6-3.82,6.22-3,1.95,1,.85,4.45.37,8a8.46,8.46,0,0,1,1.39.81c4.09,2.93,10.53,2.93,17.55,5.85s12.87,7.61,8.78,9.95-7.62,2.34-13.46,0-7-5.85-12.29-9.36c-2.35-1.57-2.37-4.42-2-7.25,1.83-3.87,3.07-8.26.51-10.31s-7.22,7.08-7.1,5.36c-2.77,2.42-5.72,5.23-8.1,4.8-4.4-.79-10.84,6.81-10.84,6.81s2.35-4.09-2.92-6.43a8.58,8.58,0,0,1-4.07-3.67C858.13,565.54,855.27,573.84,856.91,570.57Zm-21,29.33c3.51-2.33,4.68,5.85,7,0s1.76,4.1,5.86,2.35,3.5,7,5.85,6.43,2.91,2.34,2.91,2.34-14,22.82-17,19.3-4.68-15.79-4.68-19.3S832.39,602.25,835.9,599.9Zm-32.18-186c2.93,5.27,2.54,15.8,4.19,18.15s-8.28-8.2-14.13-12.3-9.36-9.94-5.85-11.7a84.47,84.47,0,0,0,9.76-6.55C799,405.28,801.9,410.59,803.72,413.85Zm-6.43,79.85c3.5-.86,6.43,7.33,7.6,9.67s4.68,11.7-.58,8.19c-3.22-2.15-6.89-10.43-9.24-16.53A5.05,5.05,0,0,1,797.29,493.7Zm14.62-79.26c-.88-.89-6.83-11.2-10.92-15.62,3.32-2.78,6-5.53,6.24-7.2.2-1.4,2.31-.48,5.12,1.09C812.5,403.85,812.51,415,811.91,414.44Zm20.32-11.17c-1.68,4.75-8.26,23.1-9.79,24.62-.93.95.3-14.6,1-29.66,2,.47,3.53.24,4.26-1.34C829,394.07,830.38,398.54,832.23,403.27ZM806.68,568.59c3.15,3.48,6.09,6.48,7.58,7.33,4.09,2.34,2.34,5.85,4.68,8.19a33.66,33.66,0,0,1,4.68,7s-2.07,3-4.51,6.43a108.43,108.43,0,0,0-6.61-8.77C809.73,585.63,808,575.54,806.68,568.59Zm-13.49-3.79c.59-3.51,1.75-9.95,1.75-9.95s2.13,2.62,5,6c.81,5,2.74,18,.84,18-2.34,0-5.85,0-7-3.51A21.31,21.31,0,0,1,793.19,564.8Zm-24-81.91c3.52,0,2.93,8.74,11.12,10.81s2.93,3.43,7.61,5.09a4.18,4.18,0,0,0,2.21.23c3.36,8.71,8.12,19.82,11.24,21.9,5.27,3.51,12.88,12.29,14.63,17.55s-5.85-4.68-8.19-2.34,2.34,8.78-1.17,8.78-4.09-20.46-9.36-19.3-7-8.2-8.78-4.11a16.22,16.22,0,0,1-2.29,3.88c-2.44-1-12.48-5.47-13.5-8.55-1.18-3.51,4.09-8.78,1.75-11.12s-4.68-.58-5.27-4.1,1.76-5.3-1.17-7.91S765.69,482.89,769.2,482.89Z"/><path class="cls-12" d="M820.53,761.29s-66.7-60.56-75.47-64.06H734.53s58.83,62.23,81.61,89.51C816.14,786.74,823.15,773.58,820.53,761.29Z"/><path class="cls-12" d="M774.62,683.2s11.87,4.45,9.4,6.43-4.61-.5-4.53,2,6.69,3.61,4.86,5.76-4.13-3.14-4.7,0,9.14,7.1,5,7.59-8.07-3-10-3.47-1.83,2-2,3.51a5.81,5.81,0,0,1-8.4,3.92c-5.44-2.48-6.63-3.57-6.53.68s1.59,7.22-3.36,5.24-6.91,2-10.38,3.46-5.93,2-7.41,0-4.45-.36-6.92,1.3-6.42,3.78-5.93,0-1.49-3.77-4.44-6.23a4.85,4.85,0,0,1,0-7.92c2.46-2,4.94-.55,6.41-3s-4.45-3.28-3-5.09,5.94-2.79,4.94-5.26-5.44-7.42-7.91-5.94-7.9,6.43-9.39,2,2.48-7.81,2.48-7.81-6.43,6.32-8.41,3.85,0-2.75-3-3.85-2.47,1.86-5,2.37-6.42-4.74-7.9-2.37,4.45,5.32,4,8.79-2,0-4.19,1.48-2.22,4.12,0,6.75-.26,6-5.2,3.36-9.88-7-9.88-3.36,8.4,9.56,4,9.07-10.38-4.45-10.38-3,3,8.89,0,6.42-6.43-8.9-7.91-6.42-2,7.41-4.94,3.95-.49-8.46-5.43-6.7-13.35,8.67-12.86,4.23,5.44-7.42,4.45-9.89-7.41,7.08-9.39,2.3-1-8.23-3-8.72-2.46,2.47-5.43,2.47-3.46-3.46-4.45-5.45-2,.5-5-1-3.94-.28-3-4.34-7.9-5.54-4-8-1-6.92,4.95-5.44,4.94,5.94,7.41,3.46.5-3.55,4.45-3.75,7.42-2.27,10.38,0,4.45,4.25,5.44,1.29,3.95-5.18,6.42-2.35-4.44-8.53-5.93-9-1.48-3-4.44,0-4-.89-6.93-1.43-5.93-5.48-7.9-3-3,8.41-4.94,5.43-2-2-5-3.45-2,1.09-5-2.66-3.93,3.75-7.38,0-5.94-10.19,0-10.69,7.9,3,9.39,0,3.46-5.93,6.91-6.92,10.39,5.45,11.38,2.47-8.41-11.36-2-10.86,8.4,1,10.87,2.46-4.45-8.89.5-7.41,8.89,10.38,10.87,8.4-1-12.15,3-8.55,10.87,11,11.85,8.06,1.49-7.42,4.45-3.46,5.44,8.4,4.45,10.87.5,3,2.47,2.48,0,2,2.47,2.46,2.47-2.46,3.46-4,0-8.39,3-6.91-9.89-4.44-4.45-7.42,3.46-7.75,8.4-2.88,5,6.34,9.39,4.37-2.47-8.46,5.93-6.46,11.87,1.52,11.37,6-3,7.92,1,6.93-1.48-9.4,7.41-6.43,4,12.84,3.47,15.33-6.93,1.47-5.93,4.93,3,3,7.9,4.45,4.94,7.9,3,9.4-3.95,10.87.5,9.38-2-6.91,4-7.41,10.38,4.45,10.87,0-3-12.86,2.72-7.91-.74,12.36,3.71,10.38,6.42-9.89,8.4-5.94-3.46,8.9.49,7.92,6.43-4.94,9.39-3,1.49,4.44,4,5.43,4.44-5.93,7.9-2,10.27,3,5.63,7.91,2.84.5,1.57,4.94S774.62,683.2,774.62,683.2Z"/><path class="cls-3" d="M163.53,651.67v6A8.5,8.5,0,0,0,163.53,651.67Z"/><path class="cls-11" d="M694.12,848.77s6.37-3,8.23-4.87,14.22-10.85,13.85-13.1-4.49-.75-7.48,0-18.72,1.5-24,12.73S694.12,848.77,694.12,848.77Z"/><path class="cls-11" d="M621.31,998.67s-16.27,39.85-19.08,47.72-4.49,17.4-8.42,23-5,9.54-9,21.89-5.61,31.44-7.3,34.24,3.93,11.8,3.93,11.8h-14.6s-.56-10.67,0-12.36-2.18-1.68-.25-6.17a225.45,225.45,0,0,0,9.24-26.94c2.8-10.67,5-19.11,5-25.84s2.8-13.45,4.48-16.82,4.5-19.65,3.93-26.39-3.93-16.83-2.8-32.55,34.8-10.11,34.8-10.11Z"/><path class="cls-11" d="M681.77,885.82c-3.27-1.48-2.24,10.19-2.24,23.2,0,35.93-4.75,43.91-16.66,57.09-5.42,6-9.56,7.87-10.68,11.23s-6.18,14-7.86,18.52-3.93,43.23-3.38,46.6,0,14.59.58,19.08-1.69,10.67-1.69,14.6,9.54,47.15,11.79,51.08,11.79,11.22,11.22,12.91-5.61.56-5.61.56l-12.35-1.12s-6.17-5.06-6.74-7.86-8.42-50-10.1-54.45-2.81-12.35-4.49-18-5-28.06-7.86-36.48-5.41-20.76-5.41-20.76c-6-.55-12.34-2.45-34.8-1.29a249.56,249.56,0,0,1-39.67-1c-1.12,3.19-11.6,12.89-14.22,14.77s-9,8.23-10.48,11.6-3.37,29.56-3.37,31.43,18,61,22.08,63.63,11.6,9.72,9,11.59-7.12.76-8.24.38-3.74.38-6.73,0-4.13-4.12-4.13-4.12c-2.23-7.11-24-59.5-26.94-65.12a16.32,16.32,0,0,1-1.87-10.48c-3,3.37-3.74,13.48-4.12,17.59s3,53.9,7.11,61,6.73,11.26,6.73,11.26-7.47-.41-9.72,0-9-3.37-9.73-4.87,1.12-5.24,1.12-10.11-7.48-53.88-9-58-6.36-18-6.36-21,16.46-29.57,16.46-29.57-.74-10.85-1.12-13.47-10.47-16.09-13.47-25.44-1.12-14.61-1.12-14.61c-3.75-6.73-9-21.7-8.23-26.94s14.59-18.71,14.59-18.71c3.37-4.86,13.47-7.81,13.47-7.81,3.37-3.33,26.47,0,34.38,2.14,18,4.82,44.76,2.89,48.87,1.77s13.3-.91,17.79-2,18.35,1.09,21,.34,11.66-1.35,15.09-9c8.49-19,22.71-41.42,23.46-44.41s-1.54-7.91-1.25-11.26c1.32-15.32,5.1-20.74,9.29-26.29,0,0,4.21,4.1,4.44,7.11.5,6.48,2.33,5.14,2.33,5.14a8.49,8.49,0,0,1,5.65-2.4,14.08,14.08,0,0,1,8.23,3c1.12,1.12,3.19-.38,4.78,0s5.07,2.49,6.57,3.62a28.94,28.94,0,0,0,4.13,3c1.49.75,9,3.75,9.72,4.86s0,4.49,0,4.49l31.82,18s0,5.24-4.13,7.11a5.2,5.2,0,0,1-1.87,2.62c-1.49,1.12-11.82,4.09-21.92.73,0,0-3.74.74-6.74,1.49S686.4,887.9,681.77,885.82Z"/><path class="cls-11" d="M683.64,842s.76-6.37,2.62-7.86S719.2,823.32,718.08,805c0,0-.73-4.49-1.87-2.62s-5.65,21.71-32.57,24.7c0,0-7.11-4.49,3.38-20.95a12,12,0,0,1,6.36-4.2c4.11-1,20.6-7.78,22.83-13.39s-1.13-3.75-3-2.63S702.35,797.12,690.38,796c0,0-3.74.75-6.74-13.84-3.44-16.69-4.48-20.22-6.35-23.59,0,0,4.11-6,3-7.85s-2.25,4.49-7.11,6c0,0-9-13.09-8.61-10.85s6.73,10.85,5.24,11.23c0,0-15.34-4.86-14.6-3.37s14.22,6.36,16.84,12.35,8.61,26.94,8.24,31.81a14.7,14.7,0,0,1-.75,7.48,41.51,41.51,0,0,0-3.75,16.84c0,7.49,1.51,16.1.75,19.84S683.64,842,683.64,842Z"/><path class="cls-11" d="M676.53,842s-5.29-11.58-3-15.71,21.68-5.89,20.77-15.16c0,0-11.8,8.43-21.34,7.86,0,0-6.5-.31-12.34-7.86-15.26-19.65-25.05-25-36.26-32.27s-16.38-12.4-15.26-20.81c0,0,4.78-13.59,2.53-15.84s-2.28,10.67-9.56,11.79c0,0-6.16-4.49-7.28-7.29s-2.36-.51,7.28,13.33c5.68,8.17,7.32,13.74,16.85,21.45,12.25,9.94,18.74,16.93,27.43,26.21,3.46,3.68,20.44,18.57,19.32,34.3C665.66,842,677.11,843.9,676.53,842Z"/><path class="cls-11" d="M638.8,791s8.73-17.6,7.42-30.88c0,0-1.25,0-1.75,1.75s-2.93,15.28-9.67,24.88C634.8,786.7,633.61,792.94,638.8,791Z"/></g></g></svg>