<svg xmlns="http://www.w3.org/2000/svg" viewBox="0 0 155.07 43.81"><defs><style>.cls-1{fill:#1c2c38;}.cls-2{fill:#e23066;}.cls-3{fill:#607210;}.cls-4{fill:#94c530;}.cls-5{fill:#393;}.cls-6{fill:#88a025;}.cls-7{fill:#b7e846;}</style></defs><g id="Layer_2" data-name="Layer 2"><g id="Layer_1-2" data-name="Layer 1"><g id="Layer_2-2" data-name="Layer 2"><g id="icons"><path class="cls-1" d="M25.1,6.07a.3.3,0,0,1-.32-.29V.31a.3.3,0,0,1,.3-.31.31.31,0,0,1,.34.27V5.78A.3.3,0,0,1,25.1,6.07Z"/><polygon class="cls-2" points="32.58 3.48 24.74 3.48 24.74 0.93 32.58 0.93 30.52 2.21 32.58 3.48"/><path class="cls-1" d="M50.32,38.55a.2.2,0,0,0,.11,0,.21.21,0,0,0,.07-.32h0a17.05,17.05,0,0,1-3.36-8.86.26.26,0,0,0-.51,0,17.52,17.52,0,0,0,3.43,9.09A.26.26,0,0,0,50.32,38.55Z"/><path class="cls-1" d="M46.35,41.73a.52.52,0,0,0,.36-.18l3.44-4.35a.44.44,0,0,0-.12-.65.55.55,0,0,0-.71.11L45.87,41a.43.43,0,0,0,.12.64.59.59,0,0,0,.36.09Z"/><path class="cls-1" d="M.22,38.55a.23.23,0,0,1-.11,0A.23.23,0,0,1,0,38.19,17,17,0,0,0,3.4,29.33a.25.25,0,0,1,.27-.21h0a.24.24,0,0,1,.24.24A17.36,17.36,0,0,1,.47,38.45.24.24,0,0,1,.22,38.55Z"/><path class="cls-1" d="M4.19,41.73a.5.5,0,0,1-.35-.18L.39,37.19a.43.43,0,0,1,.12-.64.55.55,0,0,1,.72.11L4.67,41a.44.44,0,0,1-.12.65.55.55,0,0,1-.36.08Z"/><polygon class="cls-3" points="47.88 29.92 47.5 31.71 47.5 31.72 47.37 32.34 47.27 32.84 47.27 32.85 45.43 41.73 4.94 41.73 3.12 33.35 2.9 32.31 2.9 32.31 2.37 29.91 25.12 4.85 29.64 9.82 30.27 10.52 31.95 12.37 32.58 13.07 34.26 14.92 34.89 15.61 36.57 17.46 37.2 18.16 38.88 20.01 39.52 20.71 41.2 22.56 41.83 23.25 41.83 23.25 43.51 25.1 44.14 25.8 45.82 27.65 46.45 28.35 46.91 28.86 47.88 29.92"/><path class="cls-4" d="M47.87,29.92v0l-.36,1.76h0v0l-.13.6-.05.25,0,.25h0L47,34.39l-.17.85-.39,1.82-.17.85-.45,2.17h0l-.35,1.67a47.86,47.86,0,0,1-5.18-3.84c-.33-.28-.65-.55-1-.85q-1-.87-1.89-1.8l-.82-.85c-.55-.59-1.09-1.19-1.6-1.8-.24-.28-.47-.56-.7-.85-.47-.59-.93-1.19-1.37-1.8l-.32-.45-.28-.42c-.17-.24-.33-.49-.5-.74s-.3-.46-.44-.69l-.22-.36c-.18-.28-.34-.56-.51-.85l-.37-.64-.38-.7-.24-.46c-.15-.28-.29-.56-.43-.85s-.17-.36-.26-.54-.21-.46-.32-.7L28.39,22c-.13-.28-.25-.57-.36-.85s-.12-.29-.17-.44l-.27-.7c-.09-.23-.16-.44-.24-.66s-.2-.57-.29-.85c0-.11-.07-.22-.1-.34s-.15-.46-.21-.69-.15-.51-.22-.77-.15-.57-.22-.85l-.06-.23c-.06-.23-.11-.46-.16-.7s-.13-.58-.19-.87-.11-.57-.16-.85a.61.61,0,0,0,0-.13c0-.23-.08-.46-.11-.69l-.15-1c0-.28-.07-.57-.1-.85v0c0-.23-.05-.46-.07-.69s-.06-.72-.09-1.08,0-.57,0-.85a2.23,2.23,0,0,0,0-.37c0-.77,0-1.55,0-2.32V4.87l2.75,3,.78.85,1,1.08.63.7,0,0,.77.85.89,1,.63.7.11.12.78.85.8.88.63.69.2.23.78.85.7.77.62.71.31.33.77.85.6.67.64.7.39.43.78.85.51.56.63.7h0l.49.54.77.85.41.46.63.7.59.64.77.85.32.35.63.7.47.51.2.24Z"/><polygon class="cls-5" points="25.12 4.85 25.12 41.73 4.94 41.73 2.37 29.91 25.12 4.85"/><polygon class="cls-6" points="25.1 5.19 25.12 41.73 20.86 39.75 25.1 5.19"/><path class="cls-7" d="M28.66,8.74H25.18c0-.28,0-.56,0-.85h2.74Z"/><path class="cls-7" d="M31.06,11.39H25.44c0-.28-.07-.56-.1-.85h4.95Z"/><path class="cls-7" d="M33.47,14H25.89c-.06-.28-.11-.56-.16-.85h7Z"/><path class="cls-7" d="M35.87,16.69H26.52c-.07-.29-.15-.57-.22-.85h8.8Z"/><path class="cls-7" d="M38.28,19.34H27.35c-.1-.28-.2-.56-.29-.85H37.51Z"/><path class="cls-7" d="M40.69,22H28.39c-.13-.28-.25-.56-.36-.85H39.91Z"/><path class="cls-7" d="M43.09,24.65H29.64c-.15-.28-.29-.56-.43-.85H42.32Z"/><path class="cls-7" d="M47.87,29.92v0h-15l-.33-.46-.27-.4H47.13Z"/><path class="cls-7" d="M47.5,31.75l-.13.6,0,.25H35l-.7-.85Z"/><path class="cls-7" d="M47,34.39l-.18.85H37.39l-.82-.85Z"/><path class="cls-7" d="M46.4,37.06l-.17.85h-6l-1-.85Z"/></g></g><path d="M73.08,33c0,.11,0,.43-.09.94s-.1,1.08-.15,1.69h-.6A22.45,22.45,0,0,1,64.8,34.5a13.49,13.49,0,0,1-5.36-3.34,11,11,0,0,1-2.3-3.62,12.79,12.79,0,0,1-.85-4.82,11.4,11.4,0,0,1,.84-4.44,12.21,12.21,0,0,1,2.19-3.5,13.7,13.7,0,0,1,5.31-3.44,19.9,19.9,0,0,1,7.12-1.27h.77c0,.23,0,.59.07,1.08s.07,1,.12,1.6h-.59a20.61,20.61,0,0,0-4.45.51,13.05,13.05,0,0,0-4,1.54,9.4,9.4,0,0,0-3.33,3.45,9.16,9.16,0,0,0-1.17,4.53,9.93,9.93,0,0,0,1,4.58,8.73,8.73,0,0,0,3.32,3.47,13.4,13.4,0,0,0,4.15,1.68,20.92,20.92,0,0,0,4.56.52h.32Z"/><path d="M89.21,24.66c0,3.09,0,5.6,0,7.55s0,3,0,3.13l-1.6.15c-1,.08-2.17.12-3.67.12a15.17,15.17,0,0,1-2.83-.28,9.39,9.39,0,0,1-2.45-.81,6,6,0,0,1-2.23-1.88,5.28,5.28,0,0,1,.16-5.95,7.05,7.05,0,0,1,2.79-2.1,14.93,14.93,0,0,1,3-.91,34.36,34.36,0,0,1,4.25-.61,5.31,5.31,0,0,0-.67-2.39,3.63,3.63,0,0,0-1.66-1.42,6.69,6.69,0,0,0-1.68-.47,13.86,13.86,0,0,0-2.17-.14c-.51,0-1,0-1.31,0l-1.47.1.28-2.49,1-.06c.51,0,1.2-.05,2.08-.05a12.93,12.93,0,0,1,3.62.46,6.13,6.13,0,0,1,2.63,1.48,6.37,6.37,0,0,1,1.48,2.4A13.39,13.39,0,0,1,89.21,24.66Zm-2.62,4.5v-1.6c0-.65,0-1.4,0-2.24-.5,0-1.38.13-2.64.32a14,14,0,0,0-3.18.83,5,5,0,0,0-1.7,1.18,2.69,2.69,0,0,0-.75,1.94,3.1,3.1,0,0,0,.64,2.05,4,4,0,0,0,1.73,1.18,7.92,7.92,0,0,0,1.86.46,14.84,14.84,0,0,0,2.15.14c.23,0,.51,0,.84,0l1,0c0-.09,0-.5,0-1.24S86.59,30.41,86.59,29.16Z"/><path d="M119.94,35.31h-2.71c0-.14,0-1,0-2.62s0-3.12,0-4.54c0-.56,0-1.47,0-2.75s0-2.23,0-2.87a5,5,0,0,0-.82-3.1,3,3,0,0,0-2.36-.86,6.31,6.31,0,0,0-2.24.51,16.93,16.93,0,0,0-2.92,1.58c0,.07,0,.19,0,.38s0,.43,0,.73c0,1,0,2,0,3.06s0,2,0,3c0,2.06,0,3.8,0,5.2s0,2.17,0,2.3h-2.71c0-.14,0-.89,0-2.26s0-3,0-4.86c0-.62,0-1.56,0-2.83s0-2.19,0-2.79a11.18,11.18,0,0,0-.14-1.57,3.52,3.52,0,0,0-.44-1.27,2.35,2.35,0,0,0-.93-.87,3.65,3.65,0,0,0-1.61-.29,5.52,5.52,0,0,0-2.25.61,22.67,22.67,0,0,0-3,1.76c0,.22,0,1,0,2.38s0,2.5,0,3.37C98,28.17,98,30,98,32s0,3.16,0,3.29H95.34c0-.1,0-.83,0-2.18s0-3.59,0-6.71c0-1,0-2.4,0-4.13s0-3.69-.06-5.88H98l0,2.14,0,0a17.55,17.55,0,0,1,2.89-1.77,6.93,6.93,0,0,1,3.08-.88,4.86,4.86,0,0,1,2.8.77,4.25,4.25,0,0,1,1.61,1.94h0a21.34,21.34,0,0,1,3.63-2,7.56,7.56,0,0,1,2.82-.69,4.69,4.69,0,0,1,3.7,1.5,5.92,5.92,0,0,1,1.33,4.07q0,2,0,3.33c0,.9,0,1.86,0,2.87,0,2.09,0,3.86,0,5.3S119.94,35.21,119.94,35.31Z"/><path d="M141,25.28a9.59,9.59,0,0,1-1.18,4.92,8.82,8.82,0,0,1-3.19,3.2,12.18,12.18,0,0,1-3.85,1.42,20.15,20.15,0,0,1-4,.41l.07,8.58h-2.73c0-.22,0-1.94,0-5.17s0-6.47,0-9.72c0-1.63,0-3.53,0-5.69s0-4.48,0-7c.37,0,.73,0,1.09,0H128a29.65,29.65,0,0,1,5.6.41,10.57,10.57,0,0,1,3.62,1.46A7.88,7.88,0,0,1,140,21.05,8.75,8.75,0,0,1,141,25.28Zm-2.74.1a6.42,6.42,0,0,0-.79-3.21A6.26,6.26,0,0,0,135.39,20a8.34,8.34,0,0,0-2.62-1,14.51,14.51,0,0,0-3.18-.33h-.77c0,.21,0,.95,0,2.21s0,3.44,0,6.54c0,.64,0,1.55,0,2.72s0,2.1,0,2.8a16.1,16.1,0,0,0,3.23-.33,10.1,10.1,0,0,0,2.66-.88,6.72,6.72,0,0,0,2.66-2.48A7.54,7.54,0,0,0,138.24,25.38Z"/><path d="M155.07,29.84a4.89,4.89,0,0,1-.62,2.46,5.17,5.17,0,0,1-1.62,1.76,7.69,7.69,0,0,1-2.48,1.07,13,13,0,0,1-3.17.36,17.41,17.41,0,0,1-1.74-.08l-1-.1-.1-2.45,1.19.1q1,.09,2.07.09a14.69,14.69,0,0,0,1.54-.11,5.5,5.5,0,0,0,1.57-.41,3.23,3.23,0,0,0,1.27-1,2.52,2.52,0,0,0,.41-1.44,2,2,0,0,0-.36-1.24,4.32,4.32,0,0,0-1-.93,12.38,12.38,0,0,0-1.88-1.07,20.35,20.35,0,0,1-2-1.09,5.6,5.6,0,0,1-1.75-1.82,4.65,4.65,0,0,1-.61-2.42,4.6,4.6,0,0,1,.69-2.49,5.29,5.29,0,0,1,1.87-1.77,6.24,6.24,0,0,1,2.24-.8,15.15,15.15,0,0,1,2.38-.19c.7,0,1.27,0,1.72,0l.77,0,.19,2.49-1.06-.08c-.62,0-1.31-.07-2.05-.07a7.36,7.36,0,0,0-1.51.15,4.18,4.18,0,0,0-1.21.43,2.62,2.62,0,0,0-1.06,1,2.29,2.29,0,0,0-.31,1.12,1.93,1.93,0,0,0,.44,1.28,4.19,4.19,0,0,0,1,.92c.47.3,1.11.65,1.93,1.06s1.4.75,1.77,1a6.36,6.36,0,0,1,1.83,1.83A4.45,4.45,0,0,1,155.07,29.84Z"/></g></g></svg>