<svg id="Layer_1" data-name="Layer 1" xmlns="http://www.w3.org/2000/svg" viewBox="0 0 2000 500.83"><defs><style>.cls-1{fill:#dcdae0;}.cls-2{fill:#aac9ce;}.cls-3{fill:#c7dfe2;}.cls-4{fill:#80a894;}.cls-5{fill:#4d665a;}.cls-6{fill:#bde5db;}.cls-7{fill:#4d8451;}.cls-8{fill:#658575;}.cls-9{fill:#a7c7be;}.cls-10{fill:#e1f9f2;}.cls-11{fill:#f0f1ff;}.cls-12{fill:#b2ccbe;}.cls-13{fill:#82c45b;}.cls-14{fill:#6dab71;}.cls-15{fill:#4a9e4e;}.cls-16{fill:#98bc4a;}.cls-17{fill:#dff1f2;}.cls-18{fill:#406842;}.cls-19{fill:#698727;}</style></defs><path class="cls-1" d="M537.25,291.74c-33.45,0-155.09-41.33-155.09-41.33l-73,58.35-73-7.29L2,500.83,607.2,480.16Z" transform="translate(0 0)"/><path class="cls-1" d="M2000,500.83c-9.12-7.3-228.08-221.24-228.08-221.24L1717.18,282l-57.78,14.59-130.76-94.82-21.29,9.73-36.49-12.16-106.44,87.52,249.36,177.48Z" transform="translate(0 0)"/><path class="cls-2" d="M1013.68,324.16c-28.38-8.1-204.76-69.69-204.76-69.69l-36.49,30.79L637.61,179.91l-50.18,24.31-45.62-58.35L433.86,273.92l-18.25-9.73L302.08,361.44l-34.47-8.11L0,500.83H1086.67Z" transform="translate(0 0)"/><path class="cls-3" d="M637.61,179.91,669,237.45l-14.19,29.17s34.47,102.11,34.47,97.25S782.06,282,782.06,282Z" transform="translate(0 0)"/><path class="cls-3" d="M541.81,145.87l-.5,42.95S517,226.1,517,235.83s32.44,32.41,32.44,32.41l30.41,51.87-12.17-64.83L592,274.72l-22.3-48.62,17.74-21.88Z" transform="translate(0 0)"/><path class="cls-3" d="M415.61,264.19l-16.22,46.19s2,1.62-18.24,25.94-56.77,55.1-56.77,55.1l50.68-6.48,30.41-30.8s64.88,45.39,60.82,40.52S442,346,442,346l30.41,9.73-38.52-81.85Z" transform="translate(0 0)"/><polygon class="cls-3" points="267.61 353.33 257.48 388.18 223.01 414.12 188.55 433.56 249.37 420.6 273.7 394.66 302.08 361.44 267.61 353.33"/><polygon class="cls-4" points="1254.94 46.19 1303.6 133.72 1356.31 143.44 1501.27 289.31 1565.13 257.71 1778 440.05 1811.45 435.19 1863.15 403.58 2000 500.83 467.31 500.83 525.09 442.48 567.66 432.75 607.2 393.85 652.81 396.29 813.99 209.08 877.85 187.2 923.47 128.85 1029.9 158.03 1084.64 87.52 1181.96 0 1254.94 46.19"/><path class="cls-5" d="M2000,500.83c-9.12,0-135.33-42.55-135.33-42.55l-25.85,1.22L1769.89,449l-63.35-21.07-10.65-17-6.08,9.73-13.68-9.73-13.69,7.3-7.6-20.67s-18.25,10.94-22.81,10.94-33.45-15.8-33.45-15.8l-13.68,12.15-12.17-2.43-13.68,13.37-35-14.58-85.14-23.1,229.59,97.25Z" transform="translate(0 0)"/><polygon class="cls-6" points="1181.96 0 1194.12 36.47 1201.21 100.49 1211.35 88.33 1235.68 139.39 1204.26 189.63 1265.08 149.92 1295.49 165.32 1303.6 133.72 1254.94 46.19 1181.96 0"/><polygon class="cls-6" points="923.47 128.85 930.56 162.89 920.42 209.08 945.77 189.63 965.03 193.69 960.97 205.03 1029.9 158.03 923.47 128.85"/><polygon class="cls-6" points="1356.31 143.44 1365.94 177.48 1463.25 257.71 1501.27 289.31 1356.31 143.44"/><polygon class="cls-6" points="1565.13 257.71 1525.59 305.12 1549.92 305.12 1557.53 324.56 1586.42 319.7 1571.21 289.31 1578.05 288.7 1660.16 338.54 1565.13 257.71"/><path class="cls-7" d="M2000,500.83l-404.46-92.39-33.45,17L1318.8,320.92l-51.69,9.72L1172.83,372l-164.21,70.51s-51.7-7.29-57.78,0-222,58.35-222,58.35Z" transform="translate(0 0)"/><path class="cls-8" d="M1182,0l-35.48,45.38,5.07,7.3-3,15.39s-8.1,21.88-9.12,25.13-11.15,21.07-11.15,21.07l73-13.78-7.1-64Z" transform="translate(0 0)"/><polygon class="cls-8" points="1356.31 143.44 1303.6 133.72 1295.49 165.32 1276.23 193.69 1277.24 208.27 1293.46 187.2 1321.84 166.13 1308.67 190.44 1309.68 206.65 1329.95 198.55 1327.93 187.2 1340.09 183.96 1365.94 177.48 1356.31 143.44"/><path class="cls-8" d="M1235.68,139.39l-41.56,45.38-16.73,32.82s-25.34,4.46-29.9,5.68-52.2,78.2-55.24,74.55S1112,251.63,1112,251.63l16.73-34-15.21,4.87-9.12,10.94-9.12-15.81L1066.4,220l-1.52-6.07,4.56-38.9L1036,187.2s-16.72,14.59-21.28,15.8,9.12-26.74,9.12-26.74l28.89-26.13,5.32-20.06,26.61-42.55L1182,0l9.12,71.11,10.14,29.38,10.13-12.16Z" transform="translate(0 0)"/><polygon class="cls-8" points="923.47 128.85 877.85 187.2 872.53 208.48 846.68 241.3 869.49 232.79 860.36 254.06 873.29 261.96 875.57 249.81 889.25 249.81 864.16 311.19 888.5 292.35 907.5 244.94 940.19 220.63 935.63 242.51 948.55 237.04 960.97 205.03 965.03 193.69 945.77 189.63 920.42 209.08 930.56 162.89 923.47 128.85"/><path class="cls-8" d="M1054.23,243.12,1034,281.21l-14.7.81-13.69,6.08-26.86,20.66,22.3-29.17,27.37-19,25.85-46.19,3.55,7.7,12.16,2-3.54,9.73,9.12,3.65L1064.88,263s-5.07,0-5.07-1.21,5.57-18.64,5.57-18.64l-6.08-3.65Z" transform="translate(0 0)"/><path class="cls-8" d="M1097.82,241.9l-13.18,21.48-6.59-1.21-23.31,42.13,3.55,2.44,12.16-22.29,7.1,3.65-20.78,35.25s9.12,2.84,9.12,1.62,35-72.94,35-72.94Z" transform="translate(0 0)"/><path class="cls-8" d="M1036,187.2c-.37,1.83-13.68,27.05-13.68,27.05l6.08,2.43-2.66,8.51,14.07-23.4,8.36-.61,12.54-24Z" transform="translate(0 0)"/><polygon class="cls-8" points="1339.58 211.92 1324.88 228.53 1314.24 228.94 1289.41 252.44 1298.53 235.83 1308.16 223.26 1304.61 220.83 1298.02 228.53 1293.46 225.7 1279.78 238.66 1280.28 225.29 1275.22 217.59 1286.37 219.21 1298.53 212.32 1309.68 215.57 1335.02 198.55 1339.58 211.92"/><path class="cls-8" d="M1525.59,305.12l-20.27,25.52-26.86,5.47,12.16-18.23s-13.68,10.33-14.44,8.51,25.09-37.08,25.09-37.08l63.86-31.6Z" transform="translate(0 0)"/><path class="cls-8" d="M1549.92,305.12l-14.44,12.76L1525.59,330l7.61-.61s-12.17,15.19-11.41,13.37,9.13,6.84,9.13,6.84l-2.09,2.73,1.9,3.34s5.89-5,5.89-5.47,20.91-25.67,20.91-25.67Z" transform="translate(0 0)"/><polygon class="cls-8" points="1863.15 403.58 1811.45 435.19 1778 440.05 1769.89 448.96 1834.77 463.55 1850.99 437.62 1865.18 446.53 1863.15 403.58"/><path class="cls-8" d="M607.2,393.85l-3,25.53s21.28,8.51,16.72,9.73-38,17-38,23.09-15.21-19.45-15.21-19.45Z" transform="translate(0 0)"/><polygon class="cls-8" points="813.99 378.05 760.77 410.87 748.61 407.23 721.24 437.62 718.2 424.24 683.22 450.99 675.62 463.14 620.88 464.36 607.2 480.16 558.54 476.51 467.31 500.83 728.84 500.83 847.44 425.46 847.44 441.26 865.69 442.48 915.86 376.84 885.45 387.78 883.93 340.37 855.04 370.76 839.84 364.68 813.99 378.05"/><path class="cls-8" d="M814,209.08,782.06,282l16.72,8.51-45.61,63.21-21.29-7.29-15.2,19.45-15.21,2.43s-51.7,30.39-48.66,28S814,209.08,814,209.08Z" transform="translate(0 0)"/><polygon class="cls-5" points="1265.08 149.92 1213.89 218.2 1224.53 223.67 1137.1 323.96 1127.22 319.1 1076.28 332.47 1092.24 297.82 1147.49 223.26 1177.39 217.59 1194.12 184.77 1235.68 139.39 1204.26 189.63 1265.08 149.92"/><polygon class="cls-5" points="1181.96 0 1084.64 87.52 1119.61 68.07 1122.65 71.11 1114.29 87.52 1123.41 92.39 1153.83 76.58 1130.26 123.38 1112.01 138.58 1137.1 130.68 1178.91 108.8 1169.03 122.78 1175.11 127.64 1160.67 141.01 1174.35 155.6 1200.2 119.13 1235.68 139.39 1211.35 88.33 1201.21 100.49 1198.68 84.48 1194.88 34.04 1181.96 0"/><polygon class="cls-5" points="923.47 128.85 877.85 187.2 881.65 193.28 877.85 206.04 900.66 182.95 909.02 194.5 896.86 218.2 902.18 224.89 920.42 209.08 941.71 199.36 965.03 193.69 945.77 189.63 924.99 199.97 930.56 162.89 923.47 128.85"/><path class="cls-5" d="M1565.13,257.71,1499,341.58l4.56,8.51s-30.41,39.51-30.41,37.69-44.86-18.24-44.86-18.24l31.17-8.51,12.93-18.23-12.93,9.72-3.8-10.33L1427.52,330l-18.25,5.47,38.78-24.92L1506.59,293Z" transform="translate(0 0)"/><polygon class="cls-5" points="1549.92 305.12 1525.59 326.59 1544.86 327.4 1507.35 374.4 1514.44 380.08 1505.32 392.23 1509.88 395.07 1536.74 369.54 1564.62 333.48 1572.73 334.29 1586.42 319.7 1563.1 322.94 1549.92 305.12"/><polygon class="cls-5" points="1863.15 403.58 1811.45 435.19 1834.77 429.11 1847.95 423.84 1857.58 427.49 1865.18 446.53 1863.15 403.58"/><polygon class="cls-5" points="1365.94 177.48 1346.17 197.53 1352.26 212.73 1318.8 262.57 1296.76 269.25 1256.46 299.04 1287.63 265 1312.72 246.16 1340.09 214.55 1327.93 187.2 1365.94 177.48"/><polygon class="cls-5" points="607.2 393.85 567.66 432.75 588.95 426.27 589.96 434.37 604.16 419.38 607.2 393.85"/><polygon class="cls-5" points="967.05 312 855.55 453.01 866.7 457.06 925.49 389.8 946.78 397.1 936.64 416.55 945.77 418.17 970.1 381.7 996.45 344.42 1026.86 323.35 992.4 337.13 966.04 352.52 972.12 334.69 966.04 330.04 1001.01 279.59 967.05 312"/><polygon class="cls-5" points="1078.05 262.17 1077.04 253.76 1053.47 297.82 1045.87 299.34 1030.66 319.4 1054.74 304.3 1078.05 262.17"/><polygon class="cls-5" points="813.99 209.08 765.33 265.61 779.02 257.71 788.9 261.35 813.99 209.08"/><path class="cls-5" d="M907.5,244.94l-19,47.41-34,33.43-34.47,37.28,20.27-39.71-7.09-13,31.42-35.66L837.3,293.36l23.06-39.3,9.13,5.47,5.32-12.46,14.45,2.74,22.8-15.5s29.65-13.38,28.13-13.68S907.5,244.94,907.5,244.94Z" transform="translate(0 0)"/><path class="cls-9" d="M1224.53,223.67l32.69,19.45-4.18,2.43-6.84-3.65-4.94,4L1258,256.49s-1.52,2.74-2.66,2.74S1231,248.29,1231,248.29l-2.66,4.25-15.2-4.56-17.87,18.54,3.42,3.65-6.84,4.55-9.12-3Z" transform="translate(0 0)"/><path class="cls-9" d="M1346.17,197.53l34.21,24.93s-3,2.43-4.18,1.82l-10.64-5.78-3,1.83,3.8,4.86-4.56,3.65-15.21-7,5.71-9.12Z" transform="translate(0 0)"/><path class="cls-9" d="M1321.84,166.13l7.23,5-4.56,2.43,2.28,3-4.19,4.86-3.8-1.52s-10.77,12.26-10.13,10.53S1321.84,166.13,1321.84,166.13Z" transform="translate(0 0)"/><polygon class="cls-9" points="1128.74 217.59 1138.12 220.63 1141.16 219.21 1145.46 220.02 1141.41 224.07 1137.1 223.87 1135.58 226.91 1129.75 225.7 1123.41 240.89 1119.61 240.89 1110.74 258.31 1109.48 257.71 1128.74 217.59"/><polygon class="cls-9" points="965.03 193.69 978.97 197.84 976.3 203.31 965.66 202.09 964.9 205.13 969.84 206.35 967.56 212.12 961.86 212.12 954.26 232.79 948.55 237.04 965.03 193.69"/><polygon class="cls-9" points="1069.94 224.07 1076.28 226.71 1074 230.96 1081.98 232.79 1079.32 241.9 1076.28 240.99 1070.96 255.28 1068.68 254.36 1075.52 237.45 1066.4 233.8 1069.94 224.07"/><path class="cls-9" d="M1586.42,319.7l22.8,12.56-5.57,5.27,5.07,2-3.55,3.64-4.56-1.21s-5.07,9.32-4.56,7.29-12.68-8.91-12.68-8.91l1,6.08-6.08,3.64-18.25-4-14.7,22.29-4.56-.81s-8.11,7.29-8.11,6.07,31.93-40.11,31.93-40.11l8.11.81Z" transform="translate(0 0)"/><polygon class="cls-9" points="1503.55 350.09 1510.39 354.14 1507.35 358.2 1502.79 358.2 1501.27 360.63 1502.79 361.84 1500.76 364.48 1496.96 364.07 1493.16 368.12 1473.14 387.78 1503.55 350.09"/><path class="cls-9" d="M1026.86,323.35l29.65,11.24-2.66,3-15.2-3.95-2.67,3.95-6.08-.6-4.56,5.47-11.78-.92-3.8,2.43,55.12,21-3,2.74,7.22,3-2.66,2.43-31.55-9.12.37,3.34-30.41-10.33-4.94,7-10.64-1.21L953.88,413s-8.62,6.08-8.11,5.17,50.68-73.75,50.68-73.75Z" transform="translate(0 0)"/><path class="cls-10" d="M1182,0l22,24.92s8.37,15.8,8.37,17.63,21.28,49.84,20.52,45,1.52-34,1.52-34l16.73,7.29s30.41,28.57,28.13,28.57-24.33-43.16-24.33-43.16Z" transform="translate(0 0)"/><polygon class="cls-10" points="1356.31 143.44 1370.5 167.75 1384.95 178.09 1422.96 218.81 1440.45 226.71 1356.31 143.44"/><path class="cls-10" d="M1565.13,257.71l-19.77,32.82,12.93-5.47,6.84,12.76,6.08-8.51,6.84-.6s45.62,21.88,43.34,21.88-38.78-29.18-38.78-29.18Z" transform="translate(0 0)"/><path class="cls-10" d="M923.47,128.85l7.09,34-3.29,20.36h3.8L943.23,165l7.61,7L958.06,183l-3.8-14.89s23.56,5.16,22.8,4.25-9.5-10.64-9.5-10.64l33.45-.91-11.78-12.15.76-2.43Z" transform="translate(0 0)"/><path class="cls-11" d="M923.47,128.85l17.23,17.43-1,7.29-4.57,11.35L946.27,156s27.88,1.62,26.36,1.22-24.33-15.4-24.33-15.4Z" transform="translate(0 0)"/><polygon class="cls-11" points="1181.96 0 1214.65 31 1225.29 51.66 1229.09 40.11 1251.14 46.8 1181.96 0"/><path class="cls-12" d="M1361.76,228.84s55.12,32.51,52.84,32.51-12.93,2.43-12.93,2.43l-16,20.06,17.48-13.37,49.42,10.94s42.57,18.24,37.25,14-109.48-72.93-109.48-72.93l-17.86-2.13Z" transform="translate(0 0)"/><polygon class="cls-13" points="1318.8 320.92 1340.09 364.68 1360.36 362.25 1424.23 393.04 1398.88 372.78 1562.09 425.46 1318.8 320.92"/><polygon class="cls-13" points="1595.54 408.44 1594.02 437.62 1621.39 440.05 1630.51 468.01 1715.66 459.5 2000 500.83 1595.54 408.44"/><polygon class="cls-14" points="1008.62 442.48 955.9 437.62 947.79 447.34 971.11 456.26 983.27 453.01 1027.88 475.7 1012.67 459.5 1008.62 442.48"/><path class="cls-15" d="M1318.8,320.92,1287.38,376l41.56,49.44-72,26.74-52.71,33.23s400.23,3.65,396.77,4.66-192-17.63-192-17.63l-65.89-27.55s115.56,25.93,112.52,25.93-75-47.81-75-47.81l24.33,6.48s-40.55-24.31-42.58-26.74-22.3-38.09-22.3-38.09l20.27-2.43L1330,342Z" transform="translate(0 0)"/><path class="cls-15" d="M1594,437.62l-17.49,7.9-30.41,11.55,35,7.9s13.69,11.55,11.41,10.94-31.17-7.3-31.17-7.3l53.21,20.67,43.34,10.33s77.55.61,75.27.61-54-6.69-56.26-7.9S1652.56,479,1652.56,479l31.17.6,16-3,28.9-1.22-30.42-12.76S1632,467.4,1630.51,468s-9.12-28-9.12-28Z" transform="translate(0 0)"/><polygon class="cls-16" points="417.64 403.58 437.91 449.77 371.01 448.15 332.49 472.46 448.05 500.02 604.16 500.02 558.54 476.51 583.88 468.41 417.64 403.58"/><path class="cls-16" d="M663,445.72l42.57,31.6-30.41,6.49,24.76,17,495.77-.76-340.09-6.49s2-6.48-4-8.1S663,445.72,663,445.72Z" transform="translate(0 0)"/><polygon class="cls-11" points="637.61 179.91 669.03 237.45 654.84 266.62 667 258.52 685.25 268.24 680.18 251.22 712.62 274.73 697.41 248.79 721.74 251.22 637.61 179.91"/><path class="cls-11" d="M541.81,145.87l-.5,42.95L520,226.91l6.08,6.49s20.28,16.2,19.26,13.77-2-12.15-2-12.15l14.2,4.86,6.08-10.54-18.25-22.69,7.1-5.67,11.15,8.91,4-7.29-4-18.64Z" transform="translate(0 0)"/><polygon class="cls-11" points="415.61 264.19 399.39 310.38 416.62 320.92 438.93 329.02 429.8 316.87 419.03 306.33 424.35 299.34 430.82 303.29 428.91 291.44 439.56 294.78 415.61 264.19"/><polygon class="cls-17" points="637.61 179.91 587.43 204.22 596.05 206.65 625.44 197.74 637.61 179.91"/><polygon class="cls-17" points="541.81 145.87 483.53 213.95 498.73 207.46 501.77 213.95 532.18 172.62 541.81 145.87"/><polygon class="cls-18" points="1247.34 375.01 1216.17 395.07 1226.81 403.58 1213.13 415.73 1186.52 435.79 1192.6 441.26 1214.65 432.75 1209.33 442.48 1156.11 475.3 1082.36 481.38 1146.22 451.6 1143.18 444.91 1112.77 456.46 1183.48 411.48 1188.04 401.75 1247.34 375.01"/><polygon class="cls-18" points="1200.96 375.62 1147.74 401.15 1146.98 407.23 1102.13 431.54 1100.61 422.42 1067.92 433.97 1200.96 375.62"/><path class="cls-18" d="M1276.23,396.89l-25.85,18.84,12.16,3.65-29.65,20.06s12.93,1.22,13.69-.61,42.57-31,42.57-31l-10.64-20.05Z" transform="translate(0 0)"/><polygon class="cls-18" points="1584.89 424.55 1583.72 425.25 1574.63 430.63 1570.83 428.19 1556.77 435.79 1544.98 455.24 1557.53 443.69 1559.05 438.53 1565.51 435.49 1567.41 442.78 1560.19 447.04 1577.29 438.53 1575.39 434.58 1584.89 424.55"/><path class="cls-18" d="M1415.74,430.93l46.75,26.14-39.91-16.72s42.57,25.53,41.43,25.53-24.71-9.42-24.71-9.42,15.21,8.2,12.55,7.59-17.11-8.5-17.11-8.5l-31.93-19.15,7.61-2.13,3.8-10.63L1399,413.3l3.8-3,28.89,14.59-2.28,2.43,19.77,11.55-2.66,1.52-26.23-12.46Z" transform="translate(0 0)"/><path class="cls-18" d="M1434.36,414.52l28.13,16.71-2.28,3,28.89,15.2,3.8-4.86,23.95,6.68s1.14-3.34,0-4-27-8.81-27-8.81l-1.9,1.52-20.53-8.51.76-3.65Z" transform="translate(0 0)"/><polygon class="cls-19" points="332.49 472.46 308.79 482.29 304.23 481.07 261.28 495.05 283.32 494.75 298.53 490.49 302.33 492.01 297.01 494.14 307.27 494.14 321.72 487.15 365.43 486.85 333.88 482.29 330.08 479.25 332.49 472.46"/><polygon class="cls-19" points="371.01 448.15 317.16 466.79 311.83 463.14 248.73 480.77 260.9 479.86 247.59 484.42 156.74 496.27 163.2 497.48 238.85 488.67 245.69 490.19 285.23 479.86 286.37 475.91 303.85 471.05 306.13 474.08 295.87 478.64 297.01 479.86 371.01 448.15"/><polygon class="cls-19" points="417.64 403.58 325.52 434.88 321.72 439.74 243.03 465.88 264.32 460.71 329.7 439.74 331.22 443.69 239.23 473.17 231.25 471.35 189.05 481.68 188.67 484.11 230.87 473.78 236.57 478.34 354.03 442.78 352.51 438.53 393.18 425.16 398.89 431.84 388.24 435.49 389.76 440.96 419.03 435.19 422.45 441.87 419.79 441.87 422.07 449.47 437.91 449.77 417.64 403.58"/><polygon class="cls-19" points="662.95 445.72 618.98 459.8 620.88 461.32 652.43 452.2 654.33 455.55 648.63 459.19 650.53 461.93 661.93 456.76 666.12 461.62 634.19 474.69 637.23 477.43 623.92 483.81 626.2 485.63 668.02 470.74 666.88 467.4 680.18 463.75 705.52 477.32 662.95 445.72"/><path class="cls-19" d="M675.11,483.81c-1,0-11.27,7.6-11.27,7.6l5.7,1.21,7.22-3,6.46,5.78L679,497.18l21.21,3.6Z" transform="translate(0 0)"/></svg>